<?xml version="1.0" encoding="utf-8" standalone="no"?>
<!DOCTYPE svg PUBLIC "-//W3C//DTD SVG 1.1//EN"
  "http://www.w3.org/Graphics/SVG/1.1/DTD/svg11.dtd">
<svg xmlns:xlink="http://www.w3.org/1999/xlink" width="864pt" height="360pt" viewBox="0 0 864 360" xmlns="http://www.w3.org/2000/svg" version="1.1">
 <metadata>
  <rdf:RDF xmlns:dc="http://purl.org/dc/elements/1.1/" xmlns:cc="http://creativecommons.org/ns#" xmlns:rdf="http://www.w3.org/1999/02/22-rdf-syntax-ns#">
   <cc:Work>
    <dc:type rdf:resource="http://purl.org/dc/dcmitype/StillImage"/>
    <dc:date>2026-10-10T02:13:48.900948</dc:date>
    <dc:format>image/svg+xml</dc:format>
    <dc:creator>
     <cc:Agent>
      <dc:title>Matplotlib v3.10.9, https://matplotlib.org/</dc:title>
     </cc:Agent>
    </dc:creator>
   </cc:Work>
  </rdf:RDF>
 </metadata>
 <defs>
  <style type="text/css">*{stroke-linejoin: round; stroke-linecap: butt}</style>
 </defs>
 <g id="figure_1">
  <g id="patch_1">
   <path d="M 0 360 
L 864 360 
L 864 0 
L 0 0 
L 0 360 
z
" style="fill: none; opacity: 0"/>
  </g>
  <g id="axes_1">
   <g id="patch_2">
    <path d="M 108 320.4 
L 777.6 320.4 
L 777.6 43.2 
L 108 43.2 
L 108 320.4 
z
" style="fill: none; opacity: 0"/>
   </g>
   <g id="matplotlib.axis_1">
    <g id="xtick_1">
     <g id="line2d_1">
      <path d="M 112.170312 320.4 
L 112.170312 43.2 
" clip-path="url(#pfa1931bad8)" style="fill: none; stroke-dasharray: 5.12,1.28,0.8,1.28; stroke-dashoffset: 0; stroke: #b0b0b0; stroke-width: 0.8"/>
     </g>
     <g id="line2d_2">
      <defs>
       <path id="m41c282f2ca" d="M 0 0 
L 0 3.5 
" style="stroke: #a9a9a9; stroke-width: 0.8"/>
      </defs>
      <g>
       <use xlink:href="#m41c282f2ca" x="112.170312" y="320.4" style="fill: #a9a9a9; stroke: #a9a9a9; stroke-width: 0.8"/>
      </g>
     </g>
     <g id="text_1">
      <!-- 2023-01 -->
      <g style="fill: #a9a9a9" transform="translate(91.278905 334.998438) scale(0.1 -0.1)">
       <defs>
        <path id="DejaVuSans-32" d="M 1228 531 
L 3431 531 
L 3431 0 
L 469 0 
L 469 531 
Q 828 903 1448 1529 
Q 2069 2156 2228 2338 
Q 2531 2678 2651 2914 
Q 2772 3150 2772 3378 
Q 2772 3750 2511 3984 
Q 2250 4219 1831 4219 
Q 1534 4219 1204 4116 
Q 875 4013 500 3803 
L 500 4441 
Q 881 4594 1212 4672 
Q 1544 4750 1819 4750 
Q 2544 4750 2975 4387 
Q 3406 4025 3406 3419 
Q 3406 3131 3298 2873 
Q 3191 2616 2906 2266 
Q 2828 2175 2409 1742 
Q 1991 1309 1228 531 
z
" transform="scale(0.015625)"/>
        <path id="DejaVuSans-30" d="M 2034 4250 
Q 1547 4250 1301 3770 
Q 1056 3291 1056 2328 
Q 1056 1369 1301 889 
Q 1547 409 2034 409 
Q 2525 409 2770 889 
Q 3016 1369 3016 2328 
Q 3016 3291 2770 3770 
Q 2525 4250 2034 4250 
z
M 2034 4750 
Q 2819 4750 3233 4129 
Q 3647 3509 3647 2328 
Q 3647 1150 3233 529 
Q 2819 -91 2034 -91 
Q 1250 -91 836 529 
Q 422 1150 422 2328 
Q 422 3509 836 4129 
Q 1250 4750 2034 4750 
z
" transform="scale(0.015625)"/>
        <path id="DejaVuSans-33" d="M 2597 2516 
Q 3050 2419 3304 2112 
Q 3559 1806 3559 1356 
Q 3559 666 3084 287 
Q 2609 -91 1734 -91 
Q 1441 -91 1130 -33 
Q 819 25 488 141 
L 488 750 
Q 750 597 1062 519 
Q 1375 441 1716 441 
Q 2309 441 2620 675 
Q 2931 909 2931 1356 
Q 2931 1769 2642 2001 
Q 2353 2234 1838 2234 
L 1294 2234 
L 1294 2753 
L 1863 2753 
Q 2328 2753 2575 2939 
Q 2822 3125 2822 3475 
Q 2822 3834 2567 4026 
Q 2313 4219 1838 4219 
Q 1578 4219 1281 4162 
Q 984 4106 628 3988 
L 628 4550 
Q 988 4650 1302 4700 
Q 1616 4750 1894 4750 
Q 2613 4750 3031 4423 
Q 3450 4097 3450 3541 
Q 3450 3153 3228 2886 
Q 3006 2619 2597 2516 
z
" transform="scale(0.015625)"/>
        <path id="DejaVuSans-2d" d="M 313 2009 
L 1997 2009 
L 1997 1497 
L 313 1497 
L 313 2009 
z
" transform="scale(0.015625)"/>
        <path id="DejaVuSans-31" d="M 794 531 
L 1825 531 
L 1825 4091 
L 703 3866 
L 703 4441 
L 1819 4666 
L 2450 4666 
L 2450 531 
L 3481 531 
L 3481 0 
L 794 0 
L 794 531 
z
" transform="scale(0.015625)"/>
       </defs>
       <use xlink:href="#DejaVuSans-32"/>
       <use xlink:href="#DejaVuSans-30" transform="translate(63.623047 0)"/>
       <use xlink:href="#DejaVuSans-32" transform="translate(127.246094 0)"/>
       <use xlink:href="#DejaVuSans-33" transform="translate(190.869141 0)"/>
       <use xlink:href="#DejaVuSans-2d" transform="translate(254.492188 0)"/>
       <use xlink:href="#DejaVuSans-30" transform="translate(290.576172 0)"/>
       <use xlink:href="#DejaVuSans-31" transform="translate(354.199219 0)"/>
      </g>
     </g>
    </g>
    <g id="xtick_2">
     <g id="line2d_3">
      <path d="M 195.576547 320.4 
L 195.576547 43.2 
" clip-path="url(#pfa1931bad8)" style="fill: none; stroke-dasharray: 5.12,1.28,0.8,1.28; stroke-dashoffset: 0; stroke: #b0b0b0; stroke-width: 0.8"/>
     </g>
     <g id="line2d_4">
      <g>
       <use xlink:href="#m41c282f2ca" x="195.576547" y="320.4" style="fill: #a9a9a9; stroke: #a9a9a9; stroke-width: 0.8"/>
      </g>
     </g>
     <g id="text_2">
      <!-- 2023-07 -->
      <g style="fill: #a9a9a9" transform="translate(174.68514 334.998438) scale(0.1 -0.1)">
       <defs>
        <path id="DejaVuSans-37" d="M 525 4666 
L 3525 4666 
L 3525 4397 
L 1831 0 
L 1172 0 
L 2766 4134 
L 525 4134 
L 525 4666 
z
" transform="scale(0.015625)"/>
       </defs>
       <use xlink:href="#DejaVuSans-32"/>
       <use xlink:href="#DejaVuSans-30" transform="translate(63.623047 0)"/>
       <use xlink:href="#DejaVuSans-32" transform="translate(127.246094 0)"/>
       <use xlink:href="#DejaVuSans-33" transform="translate(190.869141 0)"/>
       <use xlink:href="#DejaVuSans-2d" transform="translate(254.492188 0)"/>
       <use xlink:href="#DejaVuSans-30" transform="translate(290.576172 0)"/>
       <use xlink:href="#DejaVuSans-37" transform="translate(354.199219 0)"/>
      </g>
     </g>
    </g>
    <g id="xtick_3">
     <g id="line2d_5">
      <path d="M 280.365205 320.4 
L 280.365205 43.2 
" clip-path="url(#pfa1931bad8)" style="fill: none; stroke-dasharray: 5.12,1.28,0.8,1.28; stroke-dashoffset: 0; stroke: #b0b0b0; stroke-width: 0.8"/>
     </g>
     <g id="line2d_6">
      <g>
       <use xlink:href="#m41c282f2ca" x="280.365205" y="320.4" style="fill: #a9a9a9; stroke: #a9a9a9; stroke-width: 0.8"/>
      </g>
     </g>
     <g id="text_3">
      <!-- 2024-01 -->
      <g style="fill: #a9a9a9" transform="translate(259.473799 334.998438) scale(0.1 -0.1)">
       <defs>
        <path id="DejaVuSans-34" d="M 2419 4116 
L 825 1625 
L 2419 1625 
L 2419 4116 
z
M 2253 4666 
L 3047 4666 
L 3047 1625 
L 3713 1625 
L 3713 1100 
L 3047 1100 
L 3047 0 
L 2419 0 
L 2419 1100 
L 313 1100 
L 313 1709 
L 2253 4666 
z
" transform="scale(0.015625)"/>
       </defs>
       <use xlink:href="#DejaVuSans-32"/>
       <use xlink:href="#DejaVuSans-30" transform="translate(63.623047 0)"/>
       <use xlink:href="#DejaVuSans-32" transform="translate(127.246094 0)"/>
       <use xlink:href="#DejaVuSans-34" transform="translate(190.869141 0)"/>
       <use xlink:href="#DejaVuSans-2d" transform="translate(254.492188 0)"/>
       <use xlink:href="#DejaVuSans-30" transform="translate(290.576172 0)"/>
       <use xlink:href="#DejaVuSans-31" transform="translate(354.199219 0)"/>
      </g>
     </g>
    </g>
    <g id="xtick_4">
     <g id="line2d_7">
      <path d="M 364.232248 320.4 
L 364.232248 43.2 
" clip-path="url(#pfa1931bad8)" style="fill: none; stroke-dasharray: 5.12,1.28,0.8,1.28; stroke-dashoffset: 0; stroke: #b0b0b0; stroke-width: 0.8"/>
     </g>
     <g id="line2d_8">
      <g>
       <use xlink:href="#m41c282f2ca" x="364.232248" y="320.4" style="fill: #a9a9a9; stroke: #a9a9a9; stroke-width: 0.8"/>
      </g>
     </g>
     <g id="text_4">
      <!-- 2024-07 -->
      <g style="fill: #a9a9a9" transform="translate(343.340842 334.998438) scale(0.1 -0.1)">
       <use xlink:href="#DejaVuSans-32"/>
       <use xlink:href="#DejaVuSans-30" transform="translate(63.623047 0)"/>
       <use xlink:href="#DejaVuSans-32" transform="translate(127.246094 0)"/>
       <use xlink:href="#DejaVuSans-34" transform="translate(190.869141 0)"/>
       <use xlink:href="#DejaVuSans-2d" transform="translate(254.492188 0)"/>
       <use xlink:href="#DejaVuSans-30" transform="translate(290.576172 0)"/>
       <use xlink:href="#DejaVuSans-37" transform="translate(354.199219 0)"/>
      </g>
     </g>
    </g>
    <g id="xtick_5">
     <g id="line2d_9">
      <path d="M 449.020907 320.4 
L 449.020907 43.2 
" clip-path="url(#pfa1931bad8)" style="fill: none; stroke-dasharray: 5.12,1.28,0.8,1.28; stroke-dashoffset: 0; stroke: #b0b0b0; stroke-width: 0.8"/>
     </g>
     <g id="line2d_10">
      <g>
       <use xlink:href="#m41c282f2ca" x="449.020907" y="320.4" style="fill: #a9a9a9; stroke: #a9a9a9; stroke-width: 0.8"/>
      </g>
     </g>
     <g id="text_5">
      <!-- 2025-01 -->
      <g style="fill: #a9a9a9" transform="translate(428.129501 334.998438) scale(0.1 -0.1)">
       <defs>
        <path id="DejaVuSans-35" d="M 691 4666 
L 3169 4666 
L 3169 4134 
L 1269 4134 
L 1269 2991 
Q 1406 3038 1543 3061 
Q 1681 3084 1819 3084 
Q 2600 3084 3056 2656 
Q 3513 2228 3513 1497 
Q 3513 744 3044 326 
Q 2575 -91 1722 -91 
Q 1428 -91 1123 -41 
Q 819 9 494 109 
L 494 744 
Q 775 591 1075 516 
Q 1375 441 1709 441 
Q 2250 441 2565 725 
Q 2881 1009 2881 1497 
Q 2881 1984 2565 2268 
Q 2250 2553 1709 2553 
Q 1456 2553 1204 2497 
Q 953 2441 691 2322 
L 691 4666 
z
" transform="scale(0.015625)"/>
       </defs>
       <use xlink:href="#DejaVuSans-32"/>
       <use xlink:href="#DejaVuSans-30" transform="translate(63.623047 0)"/>
       <use xlink:href="#DejaVuSans-32" transform="translate(127.246094 0)"/>
       <use xlink:href="#DejaVuSans-35" transform="translate(190.869141 0)"/>
       <use xlink:href="#DejaVuSans-2d" transform="translate(254.492188 0)"/>
       <use xlink:href="#DejaVuSans-30" transform="translate(290.576172 0)"/>
       <use xlink:href="#DejaVuSans-31" transform="translate(354.199219 0)"/>
      </g>
     </g>
    </g>
    <g id="xtick_6">
     <g id="line2d_11">
      <path d="M 532.427142 320.4 
L 532.427142 43.2 
" clip-path="url(#pfa1931bad8)" style="fill: none; stroke-dasharray: 5.12,1.28,0.8,1.28; stroke-dashoffset: 0; stroke: #b0b0b0; stroke-width: 0.8"/>
     </g>
     <g id="line2d_12">
      <g>
       <use xlink:href="#m41c282f2ca" x="532.427142" y="320.4" style="fill: #a9a9a9; stroke: #a9a9a9; stroke-width: 0.8"/>
      </g>
     </g>
     <g id="text_6">
      <!-- 2025-07 -->
      <g style="fill: #a9a9a9" transform="translate(511.535736 334.998438) scale(0.1 -0.1)">
       <use xlink:href="#DejaVuSans-32"/>
       <use xlink:href="#DejaVuSans-30" transform="translate(63.623047 0)"/>
       <use xlink:href="#DejaVuSans-32" transform="translate(127.246094 0)"/>
       <use xlink:href="#DejaVuSans-35" transform="translate(190.869141 0)"/>
       <use xlink:href="#DejaVuSans-2d" transform="translate(254.492188 0)"/>
       <use xlink:href="#DejaVuSans-30" transform="translate(290.576172 0)"/>
       <use xlink:href="#DejaVuSans-37" transform="translate(354.199219 0)"/>
      </g>
     </g>
    </g>
    <g id="xtick_7">
     <g id="line2d_13">
      <path d="M 617.215801 320.4 
L 617.215801 43.2 
" clip-path="url(#pfa1931bad8)" style="fill: none; stroke-dasharray: 5.12,1.28,0.8,1.28; stroke-dashoffset: 0; stroke: #b0b0b0; stroke-width: 0.8"/>
     </g>
     <g id="line2d_14">
      <g>
       <use xlink:href="#m41c282f2ca" x="617.215801" y="320.4" style="fill: #a9a9a9; stroke: #a9a9a9; stroke-width: 0.8"/>
      </g>
     </g>
     <g id="text_7">
      <!-- 2026-01 -->
      <g style="fill: #a9a9a9" transform="translate(596.324394 334.998438) scale(0.1 -0.1)">
       <defs>
        <path id="DejaVuSans-36" d="M 2113 2584 
Q 1688 2584 1439 2293 
Q 1191 2003 1191 1497 
Q 1191 994 1439 701 
Q 1688 409 2113 409 
Q 2538 409 2786 701 
Q 3034 994 3034 1497 
Q 3034 2003 2786 2293 
Q 2538 2584 2113 2584 
z
M 3366 4563 
L 3366 3988 
Q 3128 4100 2886 4159 
Q 2644 4219 2406 4219 
Q 1781 4219 1451 3797 
Q 1122 3375 1075 2522 
Q 1259 2794 1537 2939 
Q 1816 3084 2150 3084 
Q 2853 3084 3261 2657 
Q 3669 2231 3669 1497 
Q 3669 778 3244 343 
Q 2819 -91 2113 -91 
Q 1303 -91 875 529 
Q 447 1150 447 2328 
Q 447 3434 972 4092 
Q 1497 4750 2381 4750 
Q 2619 4750 2861 4703 
Q 3103 4656 3366 4563 
z
" transform="scale(0.015625)"/>
       </defs>
       <use xlink:href="#DejaVuSans-32"/>
       <use xlink:href="#DejaVuSans-30" transform="translate(63.623047 0)"/>
       <use xlink:href="#DejaVuSans-32" transform="translate(127.246094 0)"/>
       <use xlink:href="#DejaVuSans-36" transform="translate(190.869141 0)"/>
       <use xlink:href="#DejaVuSans-2d" transform="translate(254.492188 0)"/>
       <use xlink:href="#DejaVuSans-30" transform="translate(290.576172 0)"/>
       <use xlink:href="#DejaVuSans-31" transform="translate(354.199219 0)"/>
      </g>
     </g>
    </g>
    <g id="xtick_8">
     <g id="line2d_15">
      <path d="M 700.622036 320.4 
L 700.622036 43.2 
" clip-path="url(#pfa1931bad8)" style="fill: none; stroke-dasharray: 5.12,1.28,0.8,1.28; stroke-dashoffset: 0; stroke: #b0b0b0; stroke-width: 0.8"/>
     </g>
     <g id="line2d_16">
      <g>
       <use xlink:href="#m41c282f2ca" x="700.622036" y="320.4" style="fill: #a9a9a9; stroke: #a9a9a9; stroke-width: 0.8"/>
      </g>
     </g>
     <g id="text_8">
      <!-- 2026-07 -->
      <g style="fill: #a9a9a9" transform="translate(679.730629 334.998438) scale(0.1 -0.1)">
       <use xlink:href="#DejaVuSans-32"/>
       <use xlink:href="#DejaVuSans-30" transform="translate(63.623047 0)"/>
       <use xlink:href="#DejaVuSans-32" transform="translate(127.246094 0)"/>
       <use xlink:href="#DejaVuSans-36" transform="translate(190.869141 0)"/>
       <use xlink:href="#DejaVuSans-2d" transform="translate(254.492188 0)"/>
       <use xlink:href="#DejaVuSans-30" transform="translate(290.576172 0)"/>
       <use xlink:href="#DejaVuSans-37" transform="translate(354.199219 0)"/>
      </g>
     </g>
    </g>
   </g>
   <g id="matplotlib.axis_2">
    <g id="ytick_1">
     <g id="line2d_17">
      <path d="M 108 308.113433 
L 777.6 308.113433 
" clip-path="url(#pfa1931bad8)" style="fill: none; stroke-dasharray: 5.12,1.28,0.8,1.28; stroke-dashoffset: 0; stroke: #b0b0b0; stroke-width: 0.8"/>
     </g>
     <g id="line2d_18">
      <defs>
       <path id="mcc075f2e3a" d="M 0 0 
L -3.5 0 
" style="stroke: #a9a9a9; stroke-width: 0.8"/>
      </defs>
      <g>
       <use xlink:href="#mcc075f2e3a" x="108" y="308.113433" style="fill: #a9a9a9; stroke: #a9a9a9; stroke-width: 0.8"/>
      </g>
     </g>
     <g id="text_9">
      <!-- 0 -->
      <g style="fill: #a9a9a9" transform="translate(94.6375 311.912652) scale(0.1 -0.1)">
       <use xlink:href="#DejaVuSans-30"/>
      </g>
     </g>
    </g>
    <g id="ytick_2">
     <g id="line2d_19">
      <path d="M 108 276.770149 
L 777.6 276.770149 
" clip-path="url(#pfa1931bad8)" style="fill: none; stroke-dasharray: 5.12,1.28,0.8,1.28; stroke-dashoffset: 0; stroke: #b0b0b0; stroke-width: 0.8"/>
     </g>
     <g id="line2d_20">
      <g>
       <use xlink:href="#mcc075f2e3a" x="108" y="276.770149" style="fill: #a9a9a9; stroke: #a9a9a9; stroke-width: 0.8"/>
      </g>
     </g>
     <g id="text_10">
      <!-- 100 -->
      <g style="fill: #a9a9a9" transform="translate(81.9125 280.569368) scale(0.1 -0.1)">
       <use xlink:href="#DejaVuSans-31"/>
       <use xlink:href="#DejaVuSans-30" transform="translate(63.623047 0)"/>
       <use xlink:href="#DejaVuSans-30" transform="translate(127.246094 0)"/>
      </g>
     </g>
    </g>
    <g id="ytick_3">
     <g id="line2d_21">
      <path d="M 108 245.426866 
L 777.6 245.426866 
" clip-path="url(#pfa1931bad8)" style="fill: none; stroke-dasharray: 5.12,1.28,0.8,1.28; stroke-dashoffset: 0; stroke: #b0b0b0; stroke-width: 0.8"/>
     </g>
     <g id="line2d_22">
      <g>
       <use xlink:href="#mcc075f2e3a" x="108" y="245.426866" style="fill: #a9a9a9; stroke: #a9a9a9; stroke-width: 0.8"/>
      </g>
     </g>
     <g id="text_11">
      <!-- 200 -->
      <g style="fill: #a9a9a9" transform="translate(81.9125 249.226084) scale(0.1 -0.1)">
       <use xlink:href="#DejaVuSans-32"/>
       <use xlink:href="#DejaVuSans-30" transform="translate(63.623047 0)"/>
       <use xlink:href="#DejaVuSans-30" transform="translate(127.246094 0)"/>
      </g>
     </g>
    </g>
    <g id="ytick_4">
     <g id="line2d_23">
      <path d="M 108 214.083582 
L 777.6 214.083582 
" clip-path="url(#pfa1931bad8)" style="fill: none; stroke-dasharray: 5.12,1.28,0.8,1.28; stroke-dashoffset: 0; stroke: #b0b0b0; stroke-width: 0.8"/>
     </g>
     <g id="line2d_24">
      <g>
       <use xlink:href="#mcc075f2e3a" x="108" y="214.083582" style="fill: #a9a9a9; stroke: #a9a9a9; stroke-width: 0.8"/>
      </g>
     </g>
     <g id="text_12">
      <!-- 300 -->
      <g style="fill: #a9a9a9" transform="translate(81.9125 217.882801) scale(0.1 -0.1)">
       <use xlink:href="#DejaVuSans-33"/>
       <use xlink:href="#DejaVuSans-30" transform="translate(63.623047 0)"/>
       <use xlink:href="#DejaVuSans-30" transform="translate(127.246094 0)"/>
      </g>
     </g>
    </g>
    <g id="ytick_5">
     <g id="line2d_25">
      <path d="M 108 182.740299 
L 777.6 182.740299 
" clip-path="url(#pfa1931bad8)" style="fill: none; stroke-dasharray: 5.12,1.28,0.8,1.28; stroke-dashoffset: 0; stroke: #b0b0b0; stroke-width: 0.8"/>
     </g>
     <g id="line2d_26">
      <g>
       <use xlink:href="#mcc075f2e3a" x="108" y="182.740299" style="fill: #a9a9a9; stroke: #a9a9a9; stroke-width: 0.8"/>
      </g>
     </g>
     <g id="text_13">
      <!-- 400 -->
      <g style="fill: #a9a9a9" transform="translate(81.9125 186.539517) scale(0.1 -0.1)">
       <use xlink:href="#DejaVuSans-34"/>
       <use xlink:href="#DejaVuSans-30" transform="translate(63.623047 0)"/>
       <use xlink:href="#DejaVuSans-30" transform="translate(127.246094 0)"/>
      </g>
     </g>
    </g>
    <g id="ytick_6">
     <g id="line2d_27">
      <path d="M 108 151.397015 
L 777.6 151.397015 
" clip-path="url(#pfa1931bad8)" style="fill: none; stroke-dasharray: 5.12,1.28,0.8,1.28; stroke-dashoffset: 0; stroke: #b0b0b0; stroke-width: 0.8"/>
     </g>
     <g id="line2d_28">
      <g>
       <use xlink:href="#mcc075f2e3a" x="108" y="151.397015" style="fill: #a9a9a9; stroke: #a9a9a9; stroke-width: 0.8"/>
      </g>
     </g>
     <g id="text_14">
      <!-- 500 -->
      <g style="fill: #a9a9a9" transform="translate(81.9125 155.196234) scale(0.1 -0.1)">
       <use xlink:href="#DejaVuSans-35"/>
       <use xlink:href="#DejaVuSans-30" transform="translate(63.623047 0)"/>
       <use xlink:href="#DejaVuSans-30" transform="translate(127.246094 0)"/>
      </g>
     </g>
    </g>
    <g id="ytick_7">
     <g id="line2d_29">
      <path d="M 108 120.053731 
L 777.6 120.053731 
" clip-path="url(#pfa1931bad8)" style="fill: none; stroke-dasharray: 5.12,1.28,0.8,1.28; stroke-dashoffset: 0; stroke: #b0b0b0; stroke-width: 0.8"/>
     </g>
     <g id="line2d_30">
      <g>
       <use xlink:href="#mcc075f2e3a" x="108" y="120.053731" style="fill: #a9a9a9; stroke: #a9a9a9; stroke-width: 0.8"/>
      </g>
     </g>
     <g id="text_15">
      <!-- 600 -->
      <g style="fill: #a9a9a9" transform="translate(81.9125 123.85295) scale(0.1 -0.1)">
       <use xlink:href="#DejaVuSans-36"/>
       <use xlink:href="#DejaVuSans-30" transform="translate(63.623047 0)"/>
       <use xlink:href="#DejaVuSans-30" transform="translate(127.246094 0)"/>
      </g>
     </g>
    </g>
    <g id="ytick_8">
     <g id="line2d_31">
      <path d="M 108 88.710448 
L 777.6 88.710448 
" clip-path="url(#pfa1931bad8)" style="fill: none; stroke-dasharray: 5.12,1.28,0.8,1.28; stroke-dashoffset: 0; stroke: #b0b0b0; stroke-width: 0.8"/>
     </g>
     <g id="line2d_32">
      <g>
       <use xlink:href="#mcc075f2e3a" x="108" y="88.710448" style="fill: #a9a9a9; stroke: #a9a9a9; stroke-width: 0.8"/>
      </g>
     </g>
     <g id="text_16">
      <!-- 700 -->
      <g style="fill: #a9a9a9" transform="translate(81.9125 92.509667) scale(0.1 -0.1)">
       <use xlink:href="#DejaVuSans-37"/>
       <use xlink:href="#DejaVuSans-30" transform="translate(63.623047 0)"/>
       <use xlink:href="#DejaVuSans-30" transform="translate(127.246094 0)"/>
      </g>
     </g>
    </g>
    <g id="ytick_9">
     <g id="line2d_33">
      <path d="M 108 57.367164 
L 777.6 57.367164 
" clip-path="url(#pfa1931bad8)" style="fill: none; stroke-dasharray: 5.12,1.28,0.8,1.28; stroke-dashoffset: 0; stroke: #b0b0b0; stroke-width: 0.8"/>
     </g>
     <g id="line2d_34">
      <g>
       <use xlink:href="#mcc075f2e3a" x="108" y="57.367164" style="fill: #a9a9a9; stroke: #a9a9a9; stroke-width: 0.8"/>
      </g>
     </g>
     <g id="text_17">
      <!-- 800 -->
      <g style="fill: #a9a9a9" transform="translate(81.9125 61.166383) scale(0.1 -0.1)">
       <defs>
        <path id="DejaVuSans-38" d="M 2034 2216 
Q 1584 2216 1326 1975 
Q 1069 1734 1069 1313 
Q 1069 891 1326 650 
Q 1584 409 2034 409 
Q 2484 409 2743 651 
Q 3003 894 3003 1313 
Q 3003 1734 2745 1975 
Q 2488 2216 2034 2216 
z
M 1403 2484 
Q 997 2584 770 2862 
Q 544 3141 544 3541 
Q 544 4100 942 4425 
Q 1341 4750 2034 4750 
Q 2731 4750 3128 4425 
Q 3525 4100 3525 3541 
Q 3525 3141 3298 2862 
Q 3072 2584 2669 2484 
Q 3125 2378 3379 2068 
Q 3634 1759 3634 1313 
Q 3634 634 3220 271 
Q 2806 -91 2034 -91 
Q 1263 -91 848 271 
Q 434 634 434 1313 
Q 434 1759 690 2068 
Q 947 2378 1403 2484 
z
M 1172 3481 
Q 1172 3119 1398 2916 
Q 1625 2713 2034 2713 
Q 2441 2713 2670 2916 
Q 2900 3119 2900 3481 
Q 2900 3844 2670 4047 
Q 2441 4250 2034 4250 
Q 1625 4250 1398 4047 
Q 1172 3844 1172 3481 
z
" transform="scale(0.015625)"/>
       </defs>
       <use xlink:href="#DejaVuSans-38"/>
       <use xlink:href="#DejaVuSans-30" transform="translate(63.623047 0)"/>
       <use xlink:href="#DejaVuSans-30" transform="translate(127.246094 0)"/>
      </g>
     </g>
    </g>
   </g>
   <g id="line2d_35">
    <path d="M 139.357979 307.486567 
L 139.818787 307.173134 
L 140.740403 305.919403 
L 141.201211 305.60597 
L 141.662019 305.60597 
L 142.122827 304.979104 
L 142.583635 304.979104 
L 143.505251 304.352239 
L 143.966059 303.41194 
L 144.426867 303.098507 
L 145.80929 301.21791 
L 146.270098 301.21791 
L 146.730906 300.277612 
L 147.191714 299.964179 
L 148.574138 298.083582 
L 149.034946 297.770149 
L 149.495754 297.770149 
L 149.956562 297.456716 
L 150.41737 297.456716 
L 151.799794 293.695522 
L 152.260601 293.068657 
L 152.721409 291.18806 
L 153.643025 290.561194 
L 154.103833 289.934328 
L 154.564641 288.99403 
L 155.025449 287.740299 
L 155.486257 287.113433 
L 155.947065 286.8 
L 156.407873 285.859701 
L 156.868681 285.859701 
L 157.329489 285.232836 
L 157.790297 285.232836 
L 158.251105 284.919403 
L 158.711912 284.292537 
L 159.17272 283.352239 
L 159.633528 283.038806 
L 160.094336 282.41194 
L 160.555144 282.098507 
L 161.015952 281.471642 
L 161.47676 281.471642 
L 161.937568 280.844776 
L 162.398376 280.531343 
L 162.859184 279.591045 
L 163.319992 279.277612 
L 163.7808 278.650746 
L 164.241608 277.397015 
L 164.702416 277.083582 
L 165.624031 277.083582 
L 166.084839 276.143284 
L 166.545647 274.889552 
L 167.006455 274.262687 
L 167.928071 272.38209 
L 168.388879 272.38209 
L 168.849687 271.441791 
L 170.232111 267.99403 
L 171.614534 267.053731 
L 172.53615 265.8 
L 173.457766 265.8 
L 174.379382 265.173134 
L 174.84019 265.173134 
L 175.300998 264.232836 
L 175.761806 263.60597 
L 176.683422 263.60597 
L 177.14423 262.665672 
L 177.605038 262.352239 
L 178.526653 262.352239 
L 178.987461 261.725373 
L 179.448269 261.725373 
L 180.369885 260.471642 
L 181.291501 259.844776 
L 182.213117 259.844776 
L 182.673925 259.21791 
L 183.595541 257.337313 
L 184.056348 257.337313 
L 184.517156 256.397015 
L 185.438772 255.770149 
L 185.89958 255.770149 
L 186.360388 255.456716 
L 186.821196 254.516418 
L 187.282004 254.202985 
L 188.20362 252.322388 
L 188.664428 251.695522 
L 189.125236 251.695522 
L 189.586044 250.441791 
L 190.046852 249.814925 
L 190.507659 249.814925 
L 190.968467 249.501493 
L 191.429275 248.874627 
L 192.350891 248.247761 
L 192.811699 248.247761 
L 193.272507 247.620896 
L 193.733315 247.307463 
L 194.654931 247.307463 
L 195.115739 246.99403 
L 195.576547 245.740299 
L 196.95897 244.8 
L 197.880586 243.546269 
L 198.341394 242.60597 
L 198.802202 242.292537 
L 199.26301 242.292537 
L 199.723818 241.665672 
L 200.184626 241.665672 
L 201.106242 240.41194 
L 201.56705 240.41194 
L 202.027858 239.785075 
L 202.488666 239.785075 
L 202.949474 239.471642 
L 203.410281 239.471642 
L 203.871089 237.904478 
L 204.331897 236.964179 
L 204.792705 236.650746 
L 205.253513 236.650746 
L 205.714321 236.023881 
L 206.175129 235.710448 
L 206.635937 235.083582 
L 207.096745 234.770149 
L 208.018361 233.516418 
L 208.479169 233.202985 
L 209.400785 233.202985 
L 209.861592 232.576119 
L 211.244016 232.576119 
L 211.704824 231.949254 
L 212.165632 231.949254 
L 213.548056 230.068657 
L 214.008864 228.814925 
L 214.469672 228.501493 
L 214.93048 227.874627 
L 215.391288 227.874627 
L 216.773711 226.934328 
L 217.695327 226.934328 
L 218.616943 226.307463 
L 220.460175 226.307463 
L 220.920983 225.680597 
L 221.381791 225.680597 
L 221.842599 224.740299 
L 222.303407 224.426866 
L 223.225022 224.426866 
L 223.68583 223.486567 
L 224.146638 222.859701 
L 224.607446 222.546269 
L 225.068254 221.919403 
L 225.529062 220.979104 
L 225.98987 220.352239 
L 226.450678 220.038806 
L 226.911486 219.098507 
L 227.372294 218.785075 
L 227.833102 218.785075 
L 228.29391 217.844776 
L 228.754718 217.21791 
L 229.215525 216.277612 
L 229.676333 216.277612 
L 230.137141 215.337313 
L 230.597949 214.083582 
L 231.058757 214.083582 
L 231.980373 211.576119 
L 232.901989 210.949254 
L 233.362797 210.322388 
L 233.823605 209.068657 
L 234.284413 208.441791 
L 234.745221 207.18806 
L 235.206028 207.18806 
L 235.666836 206.561194 
L 236.127644 206.247761 
L 236.588452 205.307463 
L 237.04926 204.680597 
L 237.970876 204.053731 
L 238.892492 204.053731 
L 240.274916 203.113433 
L 241.196532 201.232836 
L 242.578955 199.352239 
L 243.039763 198.41194 
L 243.500571 198.41194 
L 244.422187 197.785075 
L 244.882995 197.785075 
L 245.343803 197.158209 
L 246.265419 197.158209 
L 246.726227 195.591045 
L 247.187035 194.964179 
L 247.647843 194.964179 
L 248.10865 194.337313 
L 248.569458 193.397015 
L 249.030266 193.397015 
L 249.491074 193.083582 
L 249.951882 192.456716 
L 250.873498 192.456716 
L 251.334306 192.143284 
L 251.795114 192.143284 
L 252.255922 191.202985 
L 253.177538 190.576119 
L 253.638346 189.949254 
L 254.099154 189.008955 
L 255.020769 188.38209 
L 255.481577 188.38209 
L 255.942385 186.814925 
L 258.707233 186.814925 
L 259.168041 186.18806 
L 259.628849 186.18806 
L 260.089657 185.561194 
L 261.011272 184.934328 
L 261.47208 183.99403 
L 261.932888 183.99403 
L 262.854504 182.740299 
L 263.315312 182.426866 
L 263.77612 182.426866 
L 264.236928 181.486567 
L 265.619352 180.546269 
L 266.08016 179.919403 
L 267.001776 179.919403 
L 268.384199 178.979104 
L 269.305815 178.979104 
L 270.227431 178.352239 
L 270.688239 178.352239 
L 271.149047 178.038806 
L 271.609855 178.038806 
L 272.531471 177.41194 
L 273.913894 177.41194 
L 274.374702 177.098507 
L 274.83551 177.098507 
L 275.296318 176.785075 
L 275.757126 176.785075 
L 276.678742 176.158209 
L 277.600358 176.158209 
L 278.521974 175.531343 
L 281.747629 175.531343 
L 282.208437 175.21791 
L 284.973285 175.21791 
L 285.434093 174.904478 
L 286.816516 174.904478 
L 287.277324 174.591045 
L 288.19894 173.337313 
L 288.659748 173.023881 
L 290.963788 173.023881 
L 291.424596 172.397015 
L 292.346212 172.397015 
L 292.807019 172.083582 
L 293.267827 172.083582 
L 294.189443 171.456716 
L 296.032675 171.456716 
L 296.493483 171.143284 
L 296.954291 171.143284 
L 297.415099 170.829851 
L 299.25833 170.829851 
L 300.179946 170.202985 
L 300.640754 170.202985 
L 301.101562 169.576119 
L 301.56237 169.262687 
L 302.023178 168.635821 
L 303.86641 168.635821 
L 304.327218 168.322388 
L 305.248834 168.322388 
L 305.709641 168.008955 
L 309.856913 168.008955 
L 310.317721 167.38209 
L 310.778529 167.068657 
L 314.004184 167.068657 
L 314.9258 166.441791 
L 315.386608 166.441791 
L 315.847416 165.814925 
L 316.308224 165.814925 
L 316.769032 165.501493 
L 319.073071 165.501493 
L 319.533879 165.18806 
L 320.916303 165.18806 
L 322.298727 164.247761 
L 322.759535 164.247761 
L 323.220343 163.620896 
L 323.681151 163.307463 
L 324.141959 163.307463 
L 324.602766 162.99403 
L 325.524382 162.99403 
L 325.98519 162.680597 
L 326.906806 162.680597 
L 328.750038 161.426866 
L 329.210846 161.426866 
L 329.671654 160.8 
L 330.59327 160.173134 
L 331.514885 160.173134 
L 331.975693 159.859701 
L 332.436501 159.859701 
L 332.897309 159.232836 
L 334.740541 159.232836 
L 335.201349 158.60597 
L 335.662157 158.292537 
L 337.966196 158.292537 
L 338.427004 157.979104 
L 342.113468 157.979104 
L 343.035084 156.725373 
L 343.495892 156.725373 
L 343.956699 156.41194 
L 345.799931 156.41194 
L 346.721547 155.785075 
L 347.643163 155.785075 
L 348.103971 155.471642 
L 349.025587 155.471642 
L 349.486395 155.158209 
L 351.329626 155.158209 
L 351.790434 154.844776 
L 352.251242 154.844776 
L 352.71205 154.531343 
L 353.172858 154.531343 
L 353.633666 154.21791 
L 354.094474 154.21791 
L 355.937706 152.964179 
L 357.320129 152.964179 
L 357.780937 152.650746 
L 358.241745 152.023881 
L 361.006593 152.023881 
L 361.928209 151.397015 
L 363.77144 151.397015 
L 364.232248 151.083582 
L 365.153864 151.083582 
L 365.614672 150.770149 
L 366.997096 150.770149 
L 367.457904 150.143284 
L 368.37952 150.143284 
L 368.840328 149.829851 
L 373.448407 149.829851 
L 373.909215 149.516418 
L 374.370023 148.889552 
L 374.830831 148.889552 
L 375.291639 148.576119 
L 376.674062 148.576119 
L 377.13487 148.262687 
L 379.899718 148.262687 
L 380.821334 147.635821 
L 382.664565 147.635821 
L 384.507797 146.38209 
L 386.351029 146.38209 
L 386.811837 146.068657 
L 387.272645 146.068657 
L 387.733453 145.755224 
L 390.037492 145.755224 
L 390.959108 144.501493 
L 391.880724 143.874627 
L 392.341532 143.874627 
L 392.80234 143.561194 
L 393.723956 143.561194 
L 394.184764 143.247761 
L 396.488803 143.247761 
L 396.949611 142.934328 
L 397.410419 142.307463 
L 397.871227 141.99403 
L 398.332035 141.99403 
L 398.792843 141.680597 
L 399.253651 141.053731 
L 400.175267 140.426866 
L 410.313041 140.426866 
L 410.773849 140.113433 
L 412.156273 140.113433 
L 412.617081 139.8 
L 414.92112 139.8 
L 415.381928 139.173134 
L 415.842736 138.232836 
L 416.303544 138.232836 
L 418.146776 136.979104 
L 419.068392 136.979104 
L 419.5292 136.665672 
L 419.990008 136.665672 
L 420.450815 135.41194 
L 423.676471 135.41194 
L 424.137279 135.098507 
L 425.980511 135.098507 
L 426.441319 134.158209 
L 426.902126 133.844776 
L 427.362934 133.844776 
L 427.823742 133.531343 
L 428.745358 133.531343 
L 430.127782 132.591045 
L 430.58859 132.591045 
L 431.049398 132.277612 
L 431.510206 132.277612 
L 431.971014 131.964179 
L 432.89263 131.964179 
L 433.353437 131.650746 
L 434.275053 131.650746 
L 434.735861 131.337313 
L 435.196669 130.710448 
L 436.579093 129.770149 
L 437.039901 129.770149 
L 437.500709 129.456716 
L 437.961517 129.456716 
L 438.883133 128.829851 
L 443.95202 128.829851 
L 444.412828 128.516418 
L 451.324947 128.516418 
L 451.785755 128.202985 
L 455.472218 128.202985 
L 455.933026 127.889552 
L 458.237066 127.889552 
L 458.697874 127.576119 
L 459.158681 127.576119 
L 460.080297 126.949254 
L 462.384337 126.949254 
L 462.845145 126.635821 
L 465.149185 126.635821 
L 465.609992 126.008955 
L 468.37484 126.008955 
L 468.835648 125.695522 
L 469.757264 125.695522 
L 470.218072 125.38209 
L 471.139688 125.38209 
L 471.600495 125.068657 
L 472.061303 125.068657 
L 472.522111 124.755224 
L 473.904535 124.755224 
L 474.365343 124.128358 
L 474.826151 124.128358 
L 475.747767 123.501493 
L 477.590999 123.501493 
L 478.512614 122.874627 
L 481.277462 122.874627 
L 481.73827 122.561194 
L 482.199078 121.934328 
L 486.346349 121.934328 
L 486.807157 121.620896 
L 487.267965 121.620896 
L 487.728773 121.307463 
L 488.650389 120.053731 
L 489.111197 119.740299 
L 489.572005 119.113433 
L 491.876044 119.113433 
L 492.336852 118.486567 
L 496.023316 118.486567 
L 496.944932 117.859701 
L 498.327355 117.859701 
L 498.788163 117.546269 
L 499.248971 117.546269 
L 499.709779 117.232836 
L 501.553011 117.232836 
L 502.013819 116.919403 
L 502.935435 116.919403 
L 503.85705 116.292537 
L 504.778666 116.292537 
L 505.239474 115.979104 
L 506.621898 115.979104 
L 507.082706 115.665672 
L 509.386746 115.665672 
L 509.847554 115.352239 
L 510.769169 115.352239 
L 511.229977 115.038806 
L 511.690785 115.038806 
L 512.151593 114.725373 
L 513.534017 114.725373 
L 513.994825 114.41194 
L 515.838057 114.41194 
L 516.298864 113.471642 
L 517.22048 113.471642 
L 517.681288 113.158209 
L 526.436639 113.158209 
L 526.897447 112.844776 
L 536.113605 112.844776 
L 536.574413 112.21791 
L 539.800069 112.21791 
L 540.260877 111.904478 
L 541.643301 111.904478 
L 542.104108 111.591045 
L 547.172996 111.591045 
L 548.094612 110.964179 
L 549.477035 110.964179 
L 549.937843 110.650746 
L 551.781075 110.650746 
L 552.241883 110.337313 
L 553.163499 110.337313 
L 554.085115 109.710448 
L 555.467538 109.710448 
L 555.928346 109.397015 
L 560.075618 109.397015 
L 560.536426 109.083582 
L 560.997234 109.083582 
L 561.458041 108.143284 
L 562.379657 107.516418 
L 564.222889 107.516418 
L 564.683697 107.202985 
L 565.144505 106.262687 
L 565.605313 106.262687 
L 566.066121 105.949254 
L 566.987737 105.949254 
L 568.37016 105.008955 
L 571.135008 105.008955 
L 571.595816 104.695522 
L 572.056624 104.068657 
L 574.821471 104.068657 
L 575.282279 103.755224 
L 576.203895 103.755224 
L 576.664703 103.441791 
L 577.125511 103.441791 
L 577.586319 103.128358 
L 579.890359 103.128358 
L 580.351166 102.814925 
L 581.272782 102.814925 
L 581.73359 102.501493 
L 582.194398 102.501493 
L 582.655206 102.18806 
L 583.576822 102.18806 
L 584.498438 101.561194 
L 585.880862 101.561194 
L 586.34167 101.247761 
L 586.802477 101.247761 
L 588.184901 100.307463 
L 589.106517 100.307463 
L 589.567325 99.99403 
L 590.488941 99.99403 
L 590.949749 99.680597 
L 591.410557 99.680597 
L 591.871365 99.367164 
L 593.714596 99.367164 
L 594.175404 99.053731 
L 595.09702 99.053731 
L 595.557828 98.740299 
L 596.479444 98.740299 
L 596.940252 98.426866 
L 597.40106 97.8 
L 598.322676 97.8 
L 598.783484 97.486567 
L 599.244292 97.486567 
L 600.626715 96.546269 
L 601.087523 96.546269 
L 601.548331 96.232836 
L 606.15641 96.232836 
L 607.538834 95.292537 
L 607.999642 95.292537 
L 608.46045 94.979104 
L 608.921258 94.979104 
L 609.382066 94.665672 
L 609.842874 94.665672 
L 610.303682 94.352239 
L 611.686106 94.352239 
L 612.146913 93.725373 
L 616.294185 93.725373 
L 617.215801 93.098507 
L 620.902264 93.098507 
L 621.363072 92.785075 
L 621.82388 91.844776 
L 622.284688 91.531343 
L 623.667112 91.531343 
L 624.12792 91.21791 
L 626.431959 91.21791 
L 626.892767 90.904478 
L 629.196807 90.904478 
L 629.657615 90.591045 
L 632.422462 90.591045 
L 632.88327 89.964179 
L 633.344078 89.650746 
L 639.334581 89.650746 
L 639.795389 89.337313 
L 641.638621 89.337313 
L 642.560237 88.710448 
L 643.021045 88.710448 
L 643.481853 88.397015 
L 648.55074 88.397015 
L 649.472356 87.770149 
L 651.315587 87.770149 
L 651.776395 87.456716 
L 652.237203 86.829851 
L 652.698011 86.829851 
L 653.158819 86.516418 
L 654.080435 86.516418 
L 654.541243 85.889552 
L 655.462859 85.889552 
L 655.923667 85.576119 
L 658.227706 85.576119 
L 658.688514 85.262687 
L 660.531746 85.262687 
L 661.91417 84.322388 
L 662.374978 83.38209 
L 663.296593 82.128358 
L 664.679017 82.128358 
L 665.139825 81.814925 
L 665.600633 80.874627 
L 666.061441 80.561194 
L 666.522249 80.561194 
L 666.983057 80.247761 
L 667.904673 80.247761 
L 668.365481 79.620896 
L 668.826289 79.307463 
L 673.434368 79.307463 
L 673.895176 78.99403 
L 674.816792 78.99403 
L 675.2776 78.680597 
L 678.503255 78.680597 
L 678.964063 78.367164 
L 680.346487 78.367164 
L 680.807295 78.053731 
L 682.189719 78.053731 
L 682.650526 77.426866 
L 683.111334 77.426866 
L 683.572142 77.113433 
L 684.03295 77.113433 
L 684.954566 76.486567 
L 688.64103 76.486567 
L 689.101837 76.173134 
L 690.023453 76.173134 
L 690.945069 75.546269 
L 691.866685 75.546269 
L 692.327493 75.232836 
L 693.249109 75.232836 
L 693.709917 74.919403 
L 694.170725 74.919403 
L 694.631533 74.292537 
L 695.092341 74.292537 
L 695.553148 73.665672 
L 698.317996 73.665672 
L 698.778804 73.352239 
L 699.70042 73.352239 
L 700.161228 73.038806 
L 702.465267 73.038806 
L 702.926075 72.725373 
L 703.386883 72.725373 
L 703.847691 72.41194 
L 704.769307 72.41194 
L 705.230115 72.098507 
L 707.073347 72.098507 
L 707.994962 71.471642 
L 713.06385 71.471642 
L 713.524658 70.531343 
L 714.446273 69.904478 
L 715.828697 69.904478 
L 716.289505 69.591045 
L 716.750313 68.964179 
L 718.132737 68.964179 
L 718.593545 68.650746 
L 719.054353 68.650746 
L 719.515161 68.337313 
L 720.436777 68.337313 
L 720.897584 68.023881 
L 721.358392 68.023881 
L 721.8192 67.710448 
L 723.201624 67.710448 
L 723.662432 67.397015 
L 725.966472 67.397015 
L 726.42728 67.083582 
L 727.348895 67.083582 
L 727.809703 66.770149 
L 729.652935 66.770149 
L 730.113743 66.456716 
L 731.956975 66.456716 
L 732.417783 65.829851 
L 732.878591 64.576119 
L 733.339399 64.262687 
L 734.261014 63.008955 
L 734.721822 63.008955 
L 735.18263 62.38209 
L 735.643438 62.38209 
L 736.104246 62.068657 
L 736.565054 61.128358 
L 737.48667 60.501493 
L 737.947478 59.561194 
L 738.408286 59.561194 
L 739.329902 58.934328 
L 739.79071 58.307463 
L 740.712325 57.680597 
L 741.633941 57.680597 
L 742.094749 57.367164 
L 743.016365 57.367164 
L 743.477173 57.053731 
L 743.937981 56.426866 
L 744.398789 56.426866 
L 744.859597 56.113433 
L 745.781213 56.113433 
L 746.242021 55.8 
L 747.163636 55.8 
L 747.163636 55.8 
" clip-path="url(#pfa1931bad8)" style="fill: none; stroke: #1f77b4; stroke-width: 1.5; stroke-linecap: square"/>
   </g>
   <g id="line2d_36">
    <path d="M 138.436364 307.8 
L 146.270098 307.8 
L 146.730906 307.486567 
L 148.11333 307.486567 
L 148.574138 307.173134 
L 157.790297 307.173134 
L 158.251105 306.859701 
L 160.094336 306.859701 
L 160.555144 306.546269 
L 163.7808 306.546269 
L 164.241608 306.232836 
L 172.075342 306.232836 
L 172.53615 305.919403 
L 181.752309 305.919403 
L 182.213117 305.60597 
L 187.282004 305.60597 
L 187.742812 305.292537 
L 188.20362 305.292537 
L 189.125236 304.665672 
L 195.115739 304.665672 
L 195.576547 304.352239 
L 208.939977 304.352239 
L 209.400785 304.038806 
L 213.548056 304.038806 
L 214.008864 303.725373 
L 219.999367 303.725373 
L 220.460175 303.41194 
L 223.225022 303.41194 
L 223.68583 303.098507 
L 231.058757 303.098507 
L 231.519565 302.785075 
L 267.923391 302.785075 
L 268.384199 302.471642 
L 326.906806 302.471642 
L 327.367614 302.158209 
L 386.351029 302.158209 
L 386.811837 301.844776 
L 390.959108 301.844776 
L 391.419916 301.531343 
L 412.156273 301.531343 
L 412.617081 301.21791 
L 416.303544 301.21791 
L 416.764352 300.904478 
L 433.353437 300.904478 
L 433.814245 300.591045 
L 446.716867 300.591045 
L 447.177675 300.277612 
L 504.778666 300.277612 
L 505.239474 299.964179 
L 516.298864 299.964179 
L 516.759672 299.650746 
L 526.897447 299.650746 
L 527.358255 299.337313 
L 593.714596 299.337313 
L 594.175404 299.023881 
L 609.382066 299.023881 
L 609.842874 298.710448 
L 747.163636 298.710448 
L 747.163636 298.710448 
" clip-path="url(#pfa1931bad8)" style="fill: none; stroke: #ff7f0e; stroke-width: 1.5; stroke-linecap: square"/>
   </g>
   <g id="patch_3">
    <path d="M 108 320.4 
L 108 43.2 
" style="fill: none; stroke: #a9a9a9; stroke-width: 0.8; stroke-linejoin: miter; stroke-linecap: square"/>
   </g>
   <g id="patch_4">
    <path d="M 777.6 320.4 
L 777.6 43.2 
" style="fill: none"/>
   </g>
   <g id="patch_5">
    <path d="M 108 320.4 
L 777.6 320.4 
" style="fill: none; stroke: #a9a9a9; stroke-width: 0.8; stroke-linejoin: miter; stroke-linecap: square"/>
   </g>
   <g id="patch_6">
    <path d="M 108 43.2 
L 777.6 43.2 
" style="fill: none"/>
   </g>
   <g id="text_18">
    <!-- free_clash_vpn history -->
    <g style="fill: #a9a9a9" transform="translate(375.695625 37.2) scale(0.12 -0.12)">
     <defs>
      <path id="DejaVuSans-66" d="M 2375 4863 
L 2375 4384 
L 1825 4384 
Q 1516 4384 1395 4259 
Q 1275 4134 1275 3809 
L 1275 3500 
L 2222 3500 
L 2222 3053 
L 1275 3053 
L 1275 0 
L 697 0 
L 697 3053 
L 147 3053 
L 147 3500 
L 697 3500 
L 697 3744 
Q 697 4328 969 4595 
Q 1241 4863 1831 4863 
L 2375 4863 
z
" transform="scale(0.015625)"/>
      <path id="DejaVuSans-72" d="M 2631 2963 
Q 2534 3019 2420 3045 
Q 2306 3072 2169 3072 
Q 1681 3072 1420 2755 
Q 1159 2438 1159 1844 
L 1159 0 
L 581 0 
L 581 3500 
L 1159 3500 
L 1159 2956 
Q 1341 3275 1631 3429 
Q 1922 3584 2338 3584 
Q 2397 3584 2469 3576 
Q 2541 3569 2628 3553 
L 2631 2963 
z
" transform="scale(0.015625)"/>
      <path id="DejaVuSans-65" d="M 3597 1894 
L 3597 1613 
L 953 1613 
Q 991 1019 1311 708 
Q 1631 397 2203 397 
Q 2534 397 2845 478 
Q 3156 559 3463 722 
L 3463 178 
Q 3153 47 2828 -22 
Q 2503 -91 2169 -91 
Q 1331 -91 842 396 
Q 353 884 353 1716 
Q 353 2575 817 3079 
Q 1281 3584 2069 3584 
Q 2775 3584 3186 3129 
Q 3597 2675 3597 1894 
z
M 3022 2063 
Q 3016 2534 2758 2815 
Q 2500 3097 2075 3097 
Q 1594 3097 1305 2825 
Q 1016 2553 972 2059 
L 3022 2063 
z
" transform="scale(0.015625)"/>
      <path id="DejaVuSans-5f" d="M 3263 -1063 
L 3263 -1509 
L -63 -1509 
L -63 -1063 
L 3263 -1063 
z
" transform="scale(0.015625)"/>
      <path id="DejaVuSans-63" d="M 3122 3366 
L 3122 2828 
Q 2878 2963 2633 3030 
Q 2388 3097 2138 3097 
Q 1578 3097 1268 2742 
Q 959 2388 959 1747 
Q 959 1106 1268 751 
Q 1578 397 2138 397 
Q 2388 397 2633 464 
Q 2878 531 3122 666 
L 3122 134 
Q 2881 22 2623 -34 
Q 2366 -91 2075 -91 
Q 1284 -91 818 406 
Q 353 903 353 1747 
Q 353 2603 823 3093 
Q 1294 3584 2113 3584 
Q 2378 3584 2631 3529 
Q 2884 3475 3122 3366 
z
" transform="scale(0.015625)"/>
      <path id="DejaVuSans-6c" d="M 603 4863 
L 1178 4863 
L 1178 0 
L 603 0 
L 603 4863 
z
" transform="scale(0.015625)"/>
      <path id="DejaVuSans-61" d="M 2194 1759 
Q 1497 1759 1228 1600 
Q 959 1441 959 1056 
Q 959 750 1161 570 
Q 1363 391 1709 391 
Q 2188 391 2477 730 
Q 2766 1069 2766 1631 
L 2766 1759 
L 2194 1759 
z
M 3341 1997 
L 3341 0 
L 2766 0 
L 2766 531 
Q 2569 213 2275 61 
Q 1981 -91 1556 -91 
Q 1019 -91 701 211 
Q 384 513 384 1019 
Q 384 1609 779 1909 
Q 1175 2209 1959 2209 
L 2766 2209 
L 2766 2266 
Q 2766 2663 2505 2880 
Q 2244 3097 1772 3097 
Q 1472 3097 1187 3025 
Q 903 2953 641 2809 
L 641 3341 
Q 956 3463 1253 3523 
Q 1550 3584 1831 3584 
Q 2591 3584 2966 3190 
Q 3341 2797 3341 1997 
z
" transform="scale(0.015625)"/>
      <path id="DejaVuSans-73" d="M 2834 3397 
L 2834 2853 
Q 2591 2978 2328 3040 
Q 2066 3103 1784 3103 
Q 1356 3103 1142 2972 
Q 928 2841 928 2578 
Q 928 2378 1081 2264 
Q 1234 2150 1697 2047 
L 1894 2003 
Q 2506 1872 2764 1633 
Q 3022 1394 3022 966 
Q 3022 478 2636 193 
Q 2250 -91 1575 -91 
Q 1294 -91 989 -36 
Q 684 19 347 128 
L 347 722 
Q 666 556 975 473 
Q 1284 391 1588 391 
Q 1994 391 2212 530 
Q 2431 669 2431 922 
Q 2431 1156 2273 1281 
Q 2116 1406 1581 1522 
L 1381 1569 
Q 847 1681 609 1914 
Q 372 2147 372 2553 
Q 372 3047 722 3315 
Q 1072 3584 1716 3584 
Q 2034 3584 2315 3537 
Q 2597 3491 2834 3397 
z
" transform="scale(0.015625)"/>
      <path id="DejaVuSans-68" d="M 3513 2113 
L 3513 0 
L 2938 0 
L 2938 2094 
Q 2938 2591 2744 2837 
Q 2550 3084 2163 3084 
Q 1697 3084 1428 2787 
Q 1159 2491 1159 1978 
L 1159 0 
L 581 0 
L 581 4863 
L 1159 4863 
L 1159 2956 
Q 1366 3272 1645 3428 
Q 1925 3584 2291 3584 
Q 2894 3584 3203 3211 
Q 3513 2838 3513 2113 
z
" transform="scale(0.015625)"/>
      <path id="DejaVuSans-76" d="M 191 3500 
L 800 3500 
L 1894 563 
L 2988 3500 
L 3597 3500 
L 2284 0 
L 1503 0 
L 191 3500 
z
" transform="scale(0.015625)"/>
      <path id="DejaVuSans-70" d="M 1159 525 
L 1159 -1331 
L 581 -1331 
L 581 3500 
L 1159 3500 
L 1159 2969 
Q 1341 3281 1617 3432 
Q 1894 3584 2278 3584 
Q 2916 3584 3314 3078 
Q 3713 2572 3713 1747 
Q 3713 922 3314 415 
Q 2916 -91 2278 -91 
Q 1894 -91 1617 61 
Q 1341 213 1159 525 
z
M 3116 1747 
Q 3116 2381 2855 2742 
Q 2594 3103 2138 3103 
Q 1681 3103 1420 2742 
Q 1159 2381 1159 1747 
Q 1159 1113 1420 752 
Q 1681 391 2138 391 
Q 2594 391 2855 752 
Q 3116 1113 3116 1747 
z
" transform="scale(0.015625)"/>
      <path id="DejaVuSans-6e" d="M 3513 2113 
L 3513 0 
L 2938 0 
L 2938 2094 
Q 2938 2591 2744 2837 
Q 2550 3084 2163 3084 
Q 1697 3084 1428 2787 
Q 1159 2491 1159 1978 
L 1159 0 
L 581 0 
L 581 3500 
L 1159 3500 
L 1159 2956 
Q 1366 3272 1645 3428 
Q 1925 3584 2291 3584 
Q 2894 3584 3203 3211 
Q 3513 2838 3513 2113 
z
" transform="scale(0.015625)"/>
      <path id="DejaVuSans-20" transform="scale(0.015625)"/>
      <path id="DejaVuSans-69" d="M 603 3500 
L 1178 3500 
L 1178 0 
L 603 0 
L 603 3500 
z
M 603 4863 
L 1178 4863 
L 1178 4134 
L 603 4134 
L 603 4863 
z
" transform="scale(0.015625)"/>
      <path id="DejaVuSans-74" d="M 1172 4494 
L 1172 3500 
L 2356 3500 
L 2356 3053 
L 1172 3053 
L 1172 1153 
Q 1172 725 1289 603 
Q 1406 481 1766 481 
L 2356 481 
L 2356 0 
L 1766 0 
Q 1100 0 847 248 
Q 594 497 594 1153 
L 594 3053 
L 172 3053 
L 172 3500 
L 594 3500 
L 594 4494 
L 1172 4494 
z
" transform="scale(0.015625)"/>
      <path id="DejaVuSans-6f" d="M 1959 3097 
Q 1497 3097 1228 2736 
Q 959 2375 959 1747 
Q 959 1119 1226 758 
Q 1494 397 1959 397 
Q 2419 397 2687 759 
Q 2956 1122 2956 1747 
Q 2956 2369 2687 2733 
Q 2419 3097 1959 3097 
z
M 1959 3584 
Q 2709 3584 3137 3096 
Q 3566 2609 3566 1747 
Q 3566 888 3137 398 
Q 2709 -91 1959 -91 
Q 1206 -91 779 398 
Q 353 888 353 1747 
Q 353 2609 779 3096 
Q 1206 3584 1959 3584 
z
" transform="scale(0.015625)"/>
      <path id="DejaVuSans-79" d="M 2059 -325 
Q 1816 -950 1584 -1140 
Q 1353 -1331 966 -1331 
L 506 -1331 
L 506 -850 
L 844 -850 
Q 1081 -850 1212 -737 
Q 1344 -625 1503 -206 
L 1606 56 
L 191 3500 
L 800 3500 
L 1894 763 
L 2988 3500 
L 3597 3500 
L 2059 -325 
z
" transform="scale(0.015625)"/>
     </defs>
     <use xlink:href="#DejaVuSans-66"/>
     <use xlink:href="#DejaVuSans-72" transform="translate(35.205078 0)"/>
     <use xlink:href="#DejaVuSans-65" transform="translate(74.068359 0)"/>
     <use xlink:href="#DejaVuSans-65" transform="translate(135.591797 0)"/>
     <use xlink:href="#DejaVuSans-5f" transform="translate(197.115234 0)"/>
     <use xlink:href="#DejaVuSans-63" transform="translate(247.115234 0)"/>
     <use xlink:href="#DejaVuSans-6c" transform="translate(302.095703 0)"/>
     <use xlink:href="#DejaVuSans-61" transform="translate(329.878906 0)"/>
     <use xlink:href="#DejaVuSans-73" transform="translate(391.158203 0)"/>
     <use xlink:href="#DejaVuSans-68" transform="translate(443.257812 0)"/>
     <use xlink:href="#DejaVuSans-5f" transform="translate(506.636719 0)"/>
     <use xlink:href="#DejaVuSans-76" transform="translate(556.636719 0)"/>
     <use xlink:href="#DejaVuSans-70" transform="translate(615.816406 0)"/>
     <use xlink:href="#DejaVuSans-6e" transform="translate(679.292969 0)"/>
     <use xlink:href="#DejaVuSans-20" transform="translate(742.671875 0)"/>
     <use xlink:href="#DejaVuSans-68" transform="translate(774.458984 0)"/>
     <use xlink:href="#DejaVuSans-69" transform="translate(837.837891 0)"/>
     <use xlink:href="#DejaVuSans-73" transform="translate(865.621094 0)"/>
     <use xlink:href="#DejaVuSans-74" transform="translate(917.720703 0)"/>
     <use xlink:href="#DejaVuSans-6f" transform="translate(956.929688 0)"/>
     <use xlink:href="#DejaVuSans-72" transform="translate(1018.111328 0)"/>
     <use xlink:href="#DejaVuSans-79" transform="translate(1059.224609 0)"/>
    </g>
   </g>
   <g id="legend_1">
    <g id="line2d_37">
     <path d="M 815.08 328.498438 
L 825.08 328.498438 
L 835.08 328.498438 
" style="fill: none; stroke: #1f77b4; stroke-width: 1.5; stroke-linecap: square"/>
    </g>
    <g id="text_19">
     <!-- star -->
     <g style="fill: #a9a9a9" transform="translate(843.08 331.998438) scale(0.1 -0.1)">
      <use xlink:href="#DejaVuSans-73"/>
      <use xlink:href="#DejaVuSans-74" transform="translate(52.099609 0)"/>
      <use xlink:href="#DejaVuSans-61" transform="translate(91.308594 0)"/>
      <use xlink:href="#DejaVuSans-72" transform="translate(152.587891 0)"/>
     </g>
    </g>
    <g id="line2d_38">
     <path d="M 815.08 343.176562 
L 825.08 343.176562 
L 835.08 343.176562 
" style="fill: none; stroke: #ff7f0e; stroke-width: 1.5; stroke-linecap: square"/>
    </g>
    <g id="text_20">
     <!-- fork -->
     <g style="fill: #a9a9a9" transform="translate(843.08 346.676562) scale(0.1 -0.1)">
      <defs>
       <path id="DejaVuSans-6b" d="M 581 4863 
L 1159 4863 
L 1159 1991 
L 2875 3500 
L 3609 3500 
L 1753 1863 
L 3688 0 
L 2938 0 
L 1159 1709 
L 1159 0 
L 581 0 
L 581 4863 
z
" transform="scale(0.015625)"/>
      </defs>
      <use xlink:href="#DejaVuSans-66"/>
      <use xlink:href="#DejaVuSans-6f" transform="translate(35.205078 0)"/>
      <use xlink:href="#DejaVuSans-72" transform="translate(96.386719 0)"/>
      <use xlink:href="#DejaVuSans-6b" transform="translate(137.5 0)"/>
     </g>
    </g>
   </g>
  </g>
 </g>
 <defs>
  <clipPath id="pfa1931bad8">
   <rect x="108" y="43.2" width="669.6" height="277.2"/>
  </clipPath>
 </defs>
</svg>
