<?xml version="1.0" encoding="utf-8" standalone="no"?>
<!DOCTYPE svg PUBLIC "-//W3C//DTD SVG 1.1//EN"
  "http://www.w3.org/Graphics/SVG/1.1/DTD/svg11.dtd">
<svg xmlns:xlink="http://www.w3.org/1999/xlink" width="864pt" height="360pt" viewBox="0 0 864 360" xmlns="http://www.w3.org/2000/svg" version="1.1">
 <metadata>
  <rdf:RDF xmlns:dc="http://purl.org/dc/elements/1.1/" xmlns:cc="http://creativecommons.org/ns#" xmlns:rdf="http://www.w3.org/1999/02/22-rdf-syntax-ns#">
   <cc:Work>
    <dc:type rdf:resource="http://purl.org/dc/dcmitype/StillImage"/>
    <dc:date>2026-10-01T01:53:13.507596</dc:date>
    <dc:format>image/svg+xml</dc:format>
    <dc:creator>
     <cc:Agent>
      <dc:title>Matplotlib v3.10.9, https://matplotlib.org/</dc:title>
     </cc:Agent>
    </dc:creator>
   </cc:Work>
  </rdf:RDF>
 </metadata>
 <defs>
  <style type="text/css">*{stroke-linejoin: round; stroke-linecap: butt}</style>
 </defs>
 <g id="figure_1">
  <g id="patch_1">
   <path d="M 0 360 
L 864 360 
L 864 0 
L 0 0 
L 0 360 
z
" style="fill: none; opacity: 0"/>
  </g>
  <g id="axes_1">
   <g id="patch_2">
    <path d="M 108 320.4 
L 777.6 320.4 
L 777.6 43.2 
L 108 43.2 
L 108 320.4 
z
" style="fill: none; opacity: 0"/>
   </g>
   <g id="matplotlib.axis_1">
    <g id="xtick_1">
     <g id="line2d_1">
      <path d="M 111.990133 320.4 
L 111.990133 43.2 
" clip-path="url(#p439e9a45d0)" style="fill: none; stroke-dasharray: 5.12,1.28,0.8,1.28; stroke-dashoffset: 0; stroke: #b0b0b0; stroke-width: 0.8"/>
     </g>
     <g id="line2d_2">
      <defs>
       <path id="m4f554644e3" d="M 0 0 
L 0 3.5 
" style="stroke: #a9a9a9; stroke-width: 0.8"/>
      </defs>
      <g>
       <use xlink:href="#m4f554644e3" x="111.990133" y="320.4" style="fill: #a9a9a9; stroke: #a9a9a9; stroke-width: 0.8"/>
      </g>
     </g>
     <g id="text_1">
      <!-- 2023-01 -->
      <g style="fill: #a9a9a9" transform="translate(91.098727 334.998438) scale(0.1 -0.1)">
       <defs>
        <path id="DejaVuSans-32" d="M 1228 531 
L 3431 531 
L 3431 0 
L 469 0 
L 469 531 
Q 828 903 1448 1529 
Q 2069 2156 2228 2338 
Q 2531 2678 2651 2914 
Q 2772 3150 2772 3378 
Q 2772 3750 2511 3984 
Q 2250 4219 1831 4219 
Q 1534 4219 1204 4116 
Q 875 4013 500 3803 
L 500 4441 
Q 881 4594 1212 4672 
Q 1544 4750 1819 4750 
Q 2544 4750 2975 4387 
Q 3406 4025 3406 3419 
Q 3406 3131 3298 2873 
Q 3191 2616 2906 2266 
Q 2828 2175 2409 1742 
Q 1991 1309 1228 531 
z
" transform="scale(0.015625)"/>
        <path id="DejaVuSans-30" d="M 2034 4250 
Q 1547 4250 1301 3770 
Q 1056 3291 1056 2328 
Q 1056 1369 1301 889 
Q 1547 409 2034 409 
Q 2525 409 2770 889 
Q 3016 1369 3016 2328 
Q 3016 3291 2770 3770 
Q 2525 4250 2034 4250 
z
M 2034 4750 
Q 2819 4750 3233 4129 
Q 3647 3509 3647 2328 
Q 3647 1150 3233 529 
Q 2819 -91 2034 -91 
Q 1250 -91 836 529 
Q 422 1150 422 2328 
Q 422 3509 836 4129 
Q 1250 4750 2034 4750 
z
" transform="scale(0.015625)"/>
        <path id="DejaVuSans-33" d="M 2597 2516 
Q 3050 2419 3304 2112 
Q 3559 1806 3559 1356 
Q 3559 666 3084 287 
Q 2609 -91 1734 -91 
Q 1441 -91 1130 -33 
Q 819 25 488 141 
L 488 750 
Q 750 597 1062 519 
Q 1375 441 1716 441 
Q 2309 441 2620 675 
Q 2931 909 2931 1356 
Q 2931 1769 2642 2001 
Q 2353 2234 1838 2234 
L 1294 2234 
L 1294 2753 
L 1863 2753 
Q 2328 2753 2575 2939 
Q 2822 3125 2822 3475 
Q 2822 3834 2567 4026 
Q 2313 4219 1838 4219 
Q 1578 4219 1281 4162 
Q 984 4106 628 3988 
L 628 4550 
Q 988 4650 1302 4700 
Q 1616 4750 1894 4750 
Q 2613 4750 3031 4423 
Q 3450 4097 3450 3541 
Q 3450 3153 3228 2886 
Q 3006 2619 2597 2516 
z
" transform="scale(0.015625)"/>
        <path id="DejaVuSans-2d" d="M 313 2009 
L 1997 2009 
L 1997 1497 
L 313 1497 
L 313 2009 
z
" transform="scale(0.015625)"/>
        <path id="DejaVuSans-31" d="M 794 531 
L 1825 531 
L 1825 4091 
L 703 3866 
L 703 4441 
L 1819 4666 
L 2450 4666 
L 2450 531 
L 3481 531 
L 3481 0 
L 794 0 
L 794 531 
z
" transform="scale(0.015625)"/>
       </defs>
       <use xlink:href="#DejaVuSans-32"/>
       <use xlink:href="#DejaVuSans-30" transform="translate(63.623047 0)"/>
       <use xlink:href="#DejaVuSans-32" transform="translate(127.246094 0)"/>
       <use xlink:href="#DejaVuSans-33" transform="translate(190.869141 0)"/>
       <use xlink:href="#DejaVuSans-2d" transform="translate(254.492188 0)"/>
       <use xlink:href="#DejaVuSans-30" transform="translate(290.576172 0)"/>
       <use xlink:href="#DejaVuSans-31" transform="translate(354.199219 0)"/>
      </g>
     </g>
    </g>
    <g id="xtick_2">
     <g id="line2d_3">
      <path d="M 195.968514 320.4 
L 195.968514 43.2 
" clip-path="url(#p439e9a45d0)" style="fill: none; stroke-dasharray: 5.12,1.28,0.8,1.28; stroke-dashoffset: 0; stroke: #b0b0b0; stroke-width: 0.8"/>
     </g>
     <g id="line2d_4">
      <g>
       <use xlink:href="#m4f554644e3" x="195.968514" y="320.4" style="fill: #a9a9a9; stroke: #a9a9a9; stroke-width: 0.8"/>
      </g>
     </g>
     <g id="text_2">
      <!-- 2023-07 -->
      <g style="fill: #a9a9a9" transform="translate(175.077108 334.998438) scale(0.1 -0.1)">
       <defs>
        <path id="DejaVuSans-37" d="M 525 4666 
L 3525 4666 
L 3525 4397 
L 1831 0 
L 1172 0 
L 2766 4134 
L 525 4134 
L 525 4666 
z
" transform="scale(0.015625)"/>
       </defs>
       <use xlink:href="#DejaVuSans-32"/>
       <use xlink:href="#DejaVuSans-30" transform="translate(63.623047 0)"/>
       <use xlink:href="#DejaVuSans-32" transform="translate(127.246094 0)"/>
       <use xlink:href="#DejaVuSans-33" transform="translate(190.869141 0)"/>
       <use xlink:href="#DejaVuSans-2d" transform="translate(254.492188 0)"/>
       <use xlink:href="#DejaVuSans-30" transform="translate(290.576172 0)"/>
       <use xlink:href="#DejaVuSans-37" transform="translate(354.199219 0)"/>
      </g>
     </g>
    </g>
    <g id="xtick_3">
     <g id="line2d_5">
      <path d="M 281.338803 320.4 
L 281.338803 43.2 
" clip-path="url(#p439e9a45d0)" style="fill: none; stroke-dasharray: 5.12,1.28,0.8,1.28; stroke-dashoffset: 0; stroke: #b0b0b0; stroke-width: 0.8"/>
     </g>
     <g id="line2d_6">
      <g>
       <use xlink:href="#m4f554644e3" x="281.338803" y="320.4" style="fill: #a9a9a9; stroke: #a9a9a9; stroke-width: 0.8"/>
      </g>
     </g>
     <g id="text_3">
      <!-- 2024-01 -->
      <g style="fill: #a9a9a9" transform="translate(260.447396 334.998438) scale(0.1 -0.1)">
       <defs>
        <path id="DejaVuSans-34" d="M 2419 4116 
L 825 1625 
L 2419 1625 
L 2419 4116 
z
M 2253 4666 
L 3047 4666 
L 3047 1625 
L 3713 1625 
L 3713 1100 
L 3047 1100 
L 3047 0 
L 2419 0 
L 2419 1100 
L 313 1100 
L 313 1709 
L 2253 4666 
z
" transform="scale(0.015625)"/>
       </defs>
       <use xlink:href="#DejaVuSans-32"/>
       <use xlink:href="#DejaVuSans-30" transform="translate(63.623047 0)"/>
       <use xlink:href="#DejaVuSans-32" transform="translate(127.246094 0)"/>
       <use xlink:href="#DejaVuSans-34" transform="translate(190.869141 0)"/>
       <use xlink:href="#DejaVuSans-2d" transform="translate(254.492188 0)"/>
       <use xlink:href="#DejaVuSans-30" transform="translate(290.576172 0)"/>
       <use xlink:href="#DejaVuSans-31" transform="translate(354.199219 0)"/>
      </g>
     </g>
    </g>
    <g id="xtick_4">
     <g id="line2d_7">
      <path d="M 365.781153 320.4 
L 365.781153 43.2 
" clip-path="url(#p439e9a45d0)" style="fill: none; stroke-dasharray: 5.12,1.28,0.8,1.28; stroke-dashoffset: 0; stroke: #b0b0b0; stroke-width: 0.8"/>
     </g>
     <g id="line2d_8">
      <g>
       <use xlink:href="#m4f554644e3" x="365.781153" y="320.4" style="fill: #a9a9a9; stroke: #a9a9a9; stroke-width: 0.8"/>
      </g>
     </g>
     <g id="text_4">
      <!-- 2024-07 -->
      <g style="fill: #a9a9a9" transform="translate(344.889747 334.998438) scale(0.1 -0.1)">
       <use xlink:href="#DejaVuSans-32"/>
       <use xlink:href="#DejaVuSans-30" transform="translate(63.623047 0)"/>
       <use xlink:href="#DejaVuSans-32" transform="translate(127.246094 0)"/>
       <use xlink:href="#DejaVuSans-34" transform="translate(190.869141 0)"/>
       <use xlink:href="#DejaVuSans-2d" transform="translate(254.492188 0)"/>
       <use xlink:href="#DejaVuSans-30" transform="translate(290.576172 0)"/>
       <use xlink:href="#DejaVuSans-37" transform="translate(354.199219 0)"/>
      </g>
     </g>
    </g>
    <g id="xtick_5">
     <g id="line2d_9">
      <path d="M 451.151441 320.4 
L 451.151441 43.2 
" clip-path="url(#p439e9a45d0)" style="fill: none; stroke-dasharray: 5.12,1.28,0.8,1.28; stroke-dashoffset: 0; stroke: #b0b0b0; stroke-width: 0.8"/>
     </g>
     <g id="line2d_10">
      <g>
       <use xlink:href="#m4f554644e3" x="451.151441" y="320.4" style="fill: #a9a9a9; stroke: #a9a9a9; stroke-width: 0.8"/>
      </g>
     </g>
     <g id="text_5">
      <!-- 2025-01 -->
      <g style="fill: #a9a9a9" transform="translate(430.260035 334.998438) scale(0.1 -0.1)">
       <defs>
        <path id="DejaVuSans-35" d="M 691 4666 
L 3169 4666 
L 3169 4134 
L 1269 4134 
L 1269 2991 
Q 1406 3038 1543 3061 
Q 1681 3084 1819 3084 
Q 2600 3084 3056 2656 
Q 3513 2228 3513 1497 
Q 3513 744 3044 326 
Q 2575 -91 1722 -91 
Q 1428 -91 1123 -41 
Q 819 9 494 109 
L 494 744 
Q 775 591 1075 516 
Q 1375 441 1709 441 
Q 2250 441 2565 725 
Q 2881 1009 2881 1497 
Q 2881 1984 2565 2268 
Q 2250 2553 1709 2553 
Q 1456 2553 1204 2497 
Q 953 2441 691 2322 
L 691 4666 
z
" transform="scale(0.015625)"/>
       </defs>
       <use xlink:href="#DejaVuSans-32"/>
       <use xlink:href="#DejaVuSans-30" transform="translate(63.623047 0)"/>
       <use xlink:href="#DejaVuSans-32" transform="translate(127.246094 0)"/>
       <use xlink:href="#DejaVuSans-35" transform="translate(190.869141 0)"/>
       <use xlink:href="#DejaVuSans-2d" transform="translate(254.492188 0)"/>
       <use xlink:href="#DejaVuSans-30" transform="translate(290.576172 0)"/>
       <use xlink:href="#DejaVuSans-31" transform="translate(354.199219 0)"/>
      </g>
     </g>
    </g>
    <g id="xtick_6">
     <g id="line2d_11">
      <path d="M 535.129823 320.4 
L 535.129823 43.2 
" clip-path="url(#p439e9a45d0)" style="fill: none; stroke-dasharray: 5.12,1.28,0.8,1.28; stroke-dashoffset: 0; stroke: #b0b0b0; stroke-width: 0.8"/>
     </g>
     <g id="line2d_12">
      <g>
       <use xlink:href="#m4f554644e3" x="535.129823" y="320.4" style="fill: #a9a9a9; stroke: #a9a9a9; stroke-width: 0.8"/>
      </g>
     </g>
     <g id="text_6">
      <!-- 2025-07 -->
      <g style="fill: #a9a9a9" transform="translate(514.238416 334.998438) scale(0.1 -0.1)">
       <use xlink:href="#DejaVuSans-32"/>
       <use xlink:href="#DejaVuSans-30" transform="translate(63.623047 0)"/>
       <use xlink:href="#DejaVuSans-32" transform="translate(127.246094 0)"/>
       <use xlink:href="#DejaVuSans-35" transform="translate(190.869141 0)"/>
       <use xlink:href="#DejaVuSans-2d" transform="translate(254.492188 0)"/>
       <use xlink:href="#DejaVuSans-30" transform="translate(290.576172 0)"/>
       <use xlink:href="#DejaVuSans-37" transform="translate(354.199219 0)"/>
      </g>
     </g>
    </g>
    <g id="xtick_7">
     <g id="line2d_13">
      <path d="M 620.500111 320.4 
L 620.500111 43.2 
" clip-path="url(#p439e9a45d0)" style="fill: none; stroke-dasharray: 5.12,1.28,0.8,1.28; stroke-dashoffset: 0; stroke: #b0b0b0; stroke-width: 0.8"/>
     </g>
     <g id="line2d_14">
      <g>
       <use xlink:href="#m4f554644e3" x="620.500111" y="320.4" style="fill: #a9a9a9; stroke: #a9a9a9; stroke-width: 0.8"/>
      </g>
     </g>
     <g id="text_7">
      <!-- 2026-01 -->
      <g style="fill: #a9a9a9" transform="translate(599.608705 334.998438) scale(0.1 -0.1)">
       <defs>
        <path id="DejaVuSans-36" d="M 2113 2584 
Q 1688 2584 1439 2293 
Q 1191 2003 1191 1497 
Q 1191 994 1439 701 
Q 1688 409 2113 409 
Q 2538 409 2786 701 
Q 3034 994 3034 1497 
Q 3034 2003 2786 2293 
Q 2538 2584 2113 2584 
z
M 3366 4563 
L 3366 3988 
Q 3128 4100 2886 4159 
Q 2644 4219 2406 4219 
Q 1781 4219 1451 3797 
Q 1122 3375 1075 2522 
Q 1259 2794 1537 2939 
Q 1816 3084 2150 3084 
Q 2853 3084 3261 2657 
Q 3669 2231 3669 1497 
Q 3669 778 3244 343 
Q 2819 -91 2113 -91 
Q 1303 -91 875 529 
Q 447 1150 447 2328 
Q 447 3434 972 4092 
Q 1497 4750 2381 4750 
Q 2619 4750 2861 4703 
Q 3103 4656 3366 4563 
z
" transform="scale(0.015625)"/>
       </defs>
       <use xlink:href="#DejaVuSans-32"/>
       <use xlink:href="#DejaVuSans-30" transform="translate(63.623047 0)"/>
       <use xlink:href="#DejaVuSans-32" transform="translate(127.246094 0)"/>
       <use xlink:href="#DejaVuSans-36" transform="translate(190.869141 0)"/>
       <use xlink:href="#DejaVuSans-2d" transform="translate(254.492188 0)"/>
       <use xlink:href="#DejaVuSans-30" transform="translate(290.576172 0)"/>
       <use xlink:href="#DejaVuSans-31" transform="translate(354.199219 0)"/>
      </g>
     </g>
    </g>
    <g id="xtick_8">
     <g id="line2d_15">
      <path d="M 704.478492 320.4 
L 704.478492 43.2 
" clip-path="url(#p439e9a45d0)" style="fill: none; stroke-dasharray: 5.12,1.28,0.8,1.28; stroke-dashoffset: 0; stroke: #b0b0b0; stroke-width: 0.8"/>
     </g>
     <g id="line2d_16">
      <g>
       <use xlink:href="#m4f554644e3" x="704.478492" y="320.4" style="fill: #a9a9a9; stroke: #a9a9a9; stroke-width: 0.8"/>
      </g>
     </g>
     <g id="text_8">
      <!-- 2026-07 -->
      <g style="fill: #a9a9a9" transform="translate(683.587086 334.998438) scale(0.1 -0.1)">
       <use xlink:href="#DejaVuSans-32"/>
       <use xlink:href="#DejaVuSans-30" transform="translate(63.623047 0)"/>
       <use xlink:href="#DejaVuSans-32" transform="translate(127.246094 0)"/>
       <use xlink:href="#DejaVuSans-36" transform="translate(190.869141 0)"/>
       <use xlink:href="#DejaVuSans-2d" transform="translate(254.492188 0)"/>
       <use xlink:href="#DejaVuSans-30" transform="translate(290.576172 0)"/>
       <use xlink:href="#DejaVuSans-37" transform="translate(354.199219 0)"/>
      </g>
     </g>
    </g>
   </g>
   <g id="matplotlib.axis_2">
    <g id="ytick_1">
     <g id="line2d_17">
      <path d="M 108 308.115789 
L 777.6 308.115789 
" clip-path="url(#p439e9a45d0)" style="fill: none; stroke-dasharray: 5.12,1.28,0.8,1.28; stroke-dashoffset: 0; stroke: #b0b0b0; stroke-width: 0.8"/>
     </g>
     <g id="line2d_18">
      <defs>
       <path id="me749dd4516" d="M 0 0 
L -3.5 0 
" style="stroke: #a9a9a9; stroke-width: 0.8"/>
      </defs>
      <g>
       <use xlink:href="#me749dd4516" x="108" y="308.115789" style="fill: #a9a9a9; stroke: #a9a9a9; stroke-width: 0.8"/>
      </g>
     </g>
     <g id="text_9">
      <!-- 0 -->
      <g style="fill: #a9a9a9" transform="translate(94.6375 311.915008) scale(0.1 -0.1)">
       <use xlink:href="#DejaVuSans-30"/>
      </g>
     </g>
    </g>
    <g id="ytick_2">
     <g id="line2d_19">
      <path d="M 108 276.536842 
L 777.6 276.536842 
" clip-path="url(#p439e9a45d0)" style="fill: none; stroke-dasharray: 5.12,1.28,0.8,1.28; stroke-dashoffset: 0; stroke: #b0b0b0; stroke-width: 0.8"/>
     </g>
     <g id="line2d_20">
      <g>
       <use xlink:href="#me749dd4516" x="108" y="276.536842" style="fill: #a9a9a9; stroke: #a9a9a9; stroke-width: 0.8"/>
      </g>
     </g>
     <g id="text_10">
      <!-- 100 -->
      <g style="fill: #a9a9a9" transform="translate(81.9125 280.336061) scale(0.1 -0.1)">
       <use xlink:href="#DejaVuSans-31"/>
       <use xlink:href="#DejaVuSans-30" transform="translate(63.623047 0)"/>
       <use xlink:href="#DejaVuSans-30" transform="translate(127.246094 0)"/>
      </g>
     </g>
    </g>
    <g id="ytick_3">
     <g id="line2d_21">
      <path d="M 108 244.957895 
L 777.6 244.957895 
" clip-path="url(#p439e9a45d0)" style="fill: none; stroke-dasharray: 5.12,1.28,0.8,1.28; stroke-dashoffset: 0; stroke: #b0b0b0; stroke-width: 0.8"/>
     </g>
     <g id="line2d_22">
      <g>
       <use xlink:href="#me749dd4516" x="108" y="244.957895" style="fill: #a9a9a9; stroke: #a9a9a9; stroke-width: 0.8"/>
      </g>
     </g>
     <g id="text_11">
      <!-- 200 -->
      <g style="fill: #a9a9a9" transform="translate(81.9125 248.757113) scale(0.1 -0.1)">
       <use xlink:href="#DejaVuSans-32"/>
       <use xlink:href="#DejaVuSans-30" transform="translate(63.623047 0)"/>
       <use xlink:href="#DejaVuSans-30" transform="translate(127.246094 0)"/>
      </g>
     </g>
    </g>
    <g id="ytick_4">
     <g id="line2d_23">
      <path d="M 108 213.378947 
L 777.6 213.378947 
" clip-path="url(#p439e9a45d0)" style="fill: none; stroke-dasharray: 5.12,1.28,0.8,1.28; stroke-dashoffset: 0; stroke: #b0b0b0; stroke-width: 0.8"/>
     </g>
     <g id="line2d_24">
      <g>
       <use xlink:href="#me749dd4516" x="108" y="213.378947" style="fill: #a9a9a9; stroke: #a9a9a9; stroke-width: 0.8"/>
      </g>
     </g>
     <g id="text_12">
      <!-- 300 -->
      <g style="fill: #a9a9a9" transform="translate(81.9125 217.178166) scale(0.1 -0.1)">
       <use xlink:href="#DejaVuSans-33"/>
       <use xlink:href="#DejaVuSans-30" transform="translate(63.623047 0)"/>
       <use xlink:href="#DejaVuSans-30" transform="translate(127.246094 0)"/>
      </g>
     </g>
    </g>
    <g id="ytick_5">
     <g id="line2d_25">
      <path d="M 108 181.8 
L 777.6 181.8 
" clip-path="url(#p439e9a45d0)" style="fill: none; stroke-dasharray: 5.12,1.28,0.8,1.28; stroke-dashoffset: 0; stroke: #b0b0b0; stroke-width: 0.8"/>
     </g>
     <g id="line2d_26">
      <g>
       <use xlink:href="#me749dd4516" x="108" y="181.8" style="fill: #a9a9a9; stroke: #a9a9a9; stroke-width: 0.8"/>
      </g>
     </g>
     <g id="text_13">
      <!-- 400 -->
      <g style="fill: #a9a9a9" transform="translate(81.9125 185.599219) scale(0.1 -0.1)">
       <use xlink:href="#DejaVuSans-34"/>
       <use xlink:href="#DejaVuSans-30" transform="translate(63.623047 0)"/>
       <use xlink:href="#DejaVuSans-30" transform="translate(127.246094 0)"/>
      </g>
     </g>
    </g>
    <g id="ytick_6">
     <g id="line2d_27">
      <path d="M 108 150.221053 
L 777.6 150.221053 
" clip-path="url(#p439e9a45d0)" style="fill: none; stroke-dasharray: 5.12,1.28,0.8,1.28; stroke-dashoffset: 0; stroke: #b0b0b0; stroke-width: 0.8"/>
     </g>
     <g id="line2d_28">
      <g>
       <use xlink:href="#me749dd4516" x="108" y="150.221053" style="fill: #a9a9a9; stroke: #a9a9a9; stroke-width: 0.8"/>
      </g>
     </g>
     <g id="text_14">
      <!-- 500 -->
      <g style="fill: #a9a9a9" transform="translate(81.9125 154.020271) scale(0.1 -0.1)">
       <use xlink:href="#DejaVuSans-35"/>
       <use xlink:href="#DejaVuSans-30" transform="translate(63.623047 0)"/>
       <use xlink:href="#DejaVuSans-30" transform="translate(127.246094 0)"/>
      </g>
     </g>
    </g>
    <g id="ytick_7">
     <g id="line2d_29">
      <path d="M 108 118.642105 
L 777.6 118.642105 
" clip-path="url(#p439e9a45d0)" style="fill: none; stroke-dasharray: 5.12,1.28,0.8,1.28; stroke-dashoffset: 0; stroke: #b0b0b0; stroke-width: 0.8"/>
     </g>
     <g id="line2d_30">
      <g>
       <use xlink:href="#me749dd4516" x="108" y="118.642105" style="fill: #a9a9a9; stroke: #a9a9a9; stroke-width: 0.8"/>
      </g>
     </g>
     <g id="text_15">
      <!-- 600 -->
      <g style="fill: #a9a9a9" transform="translate(81.9125 122.441324) scale(0.1 -0.1)">
       <use xlink:href="#DejaVuSans-36"/>
       <use xlink:href="#DejaVuSans-30" transform="translate(63.623047 0)"/>
       <use xlink:href="#DejaVuSans-30" transform="translate(127.246094 0)"/>
      </g>
     </g>
    </g>
    <g id="ytick_8">
     <g id="line2d_31">
      <path d="M 108 87.063158 
L 777.6 87.063158 
" clip-path="url(#p439e9a45d0)" style="fill: none; stroke-dasharray: 5.12,1.28,0.8,1.28; stroke-dashoffset: 0; stroke: #b0b0b0; stroke-width: 0.8"/>
     </g>
     <g id="line2d_32">
      <g>
       <use xlink:href="#me749dd4516" x="108" y="87.063158" style="fill: #a9a9a9; stroke: #a9a9a9; stroke-width: 0.8"/>
      </g>
     </g>
     <g id="text_16">
      <!-- 700 -->
      <g style="fill: #a9a9a9" transform="translate(81.9125 90.862377) scale(0.1 -0.1)">
       <use xlink:href="#DejaVuSans-37"/>
       <use xlink:href="#DejaVuSans-30" transform="translate(63.623047 0)"/>
       <use xlink:href="#DejaVuSans-30" transform="translate(127.246094 0)"/>
      </g>
     </g>
    </g>
    <g id="ytick_9">
     <g id="line2d_33">
      <path d="M 108 55.484211 
L 777.6 55.484211 
" clip-path="url(#p439e9a45d0)" style="fill: none; stroke-dasharray: 5.12,1.28,0.8,1.28; stroke-dashoffset: 0; stroke: #b0b0b0; stroke-width: 0.8"/>
     </g>
     <g id="line2d_34">
      <g>
       <use xlink:href="#me749dd4516" x="108" y="55.484211" style="fill: #a9a9a9; stroke: #a9a9a9; stroke-width: 0.8"/>
      </g>
     </g>
     <g id="text_17">
      <!-- 800 -->
      <g style="fill: #a9a9a9" transform="translate(81.9125 59.283429) scale(0.1 -0.1)">
       <defs>
        <path id="DejaVuSans-38" d="M 2034 2216 
Q 1584 2216 1326 1975 
Q 1069 1734 1069 1313 
Q 1069 891 1326 650 
Q 1584 409 2034 409 
Q 2484 409 2743 651 
Q 3003 894 3003 1313 
Q 3003 1734 2745 1975 
Q 2488 2216 2034 2216 
z
M 1403 2484 
Q 997 2584 770 2862 
Q 544 3141 544 3541 
Q 544 4100 942 4425 
Q 1341 4750 2034 4750 
Q 2731 4750 3128 4425 
Q 3525 4100 3525 3541 
Q 3525 3141 3298 2862 
Q 3072 2584 2669 2484 
Q 3125 2378 3379 2068 
Q 3634 1759 3634 1313 
Q 3634 634 3220 271 
Q 2806 -91 2034 -91 
Q 1263 -91 848 271 
Q 434 634 434 1313 
Q 434 1759 690 2068 
Q 947 2378 1403 2484 
z
M 1172 3481 
Q 1172 3119 1398 2916 
Q 1625 2713 2034 2713 
Q 2441 2713 2670 2916 
Q 2900 3119 2900 3481 
Q 2900 3844 2670 4047 
Q 2441 4250 2034 4250 
Q 1625 4250 1398 4047 
Q 1172 3844 1172 3481 
z
" transform="scale(0.015625)"/>
       </defs>
       <use xlink:href="#DejaVuSans-38"/>
       <use xlink:href="#DejaVuSans-30" transform="translate(63.623047 0)"/>
       <use xlink:href="#DejaVuSans-30" transform="translate(127.246094 0)"/>
      </g>
     </g>
    </g>
   </g>
   <g id="line2d_35">
    <path d="M 139.364302 307.484211 
L 139.828271 307.168421 
L 140.756208 305.905263 
L 141.220177 305.589474 
L 141.684146 305.589474 
L 142.148115 304.957895 
L 142.612084 304.957895 
L 143.540022 304.326316 
L 144.003991 303.378947 
L 144.46796 303.063158 
L 145.859867 301.168421 
L 146.323836 301.168421 
L 146.787805 300.221053 
L 147.251774 299.905263 
L 148.643681 298.010526 
L 149.10765 297.694737 
L 149.571619 297.694737 
L 150.035588 297.378947 
L 150.499557 297.378947 
L 151.891463 293.589474 
L 152.355432 292.957895 
L 152.819401 291.063158 
L 153.747339 290.431579 
L 154.211308 289.8 
L 154.675277 288.852632 
L 155.139246 287.589474 
L 155.603215 286.957895 
L 156.067184 286.642105 
L 156.531153 285.694737 
L 156.995122 285.694737 
L 157.459091 285.063158 
L 157.92306 285.063158 
L 158.387029 284.747368 
L 158.850998 284.115789 
L 159.314967 283.168421 
L 159.778936 282.852632 
L 160.242905 282.221053 
L 160.706874 281.905263 
L 161.170843 281.273684 
L 161.634812 281.273684 
L 162.09878 280.642105 
L 162.562749 280.326316 
L 163.026718 279.378947 
L 163.490687 279.063158 
L 163.954656 278.431579 
L 164.418625 277.168421 
L 164.882594 276.852632 
L 165.810532 276.852632 
L 166.274501 275.905263 
L 166.73847 274.642105 
L 167.202439 274.010526 
L 168.130377 272.115789 
L 168.594346 272.115789 
L 169.058315 271.168421 
L 170.450222 267.694737 
L 171.842129 266.747368 
L 172.770067 265.484211 
L 173.698004 265.484211 
L 174.625942 264.852632 
L 175.089911 264.852632 
L 175.55388 263.905263 
L 176.017849 263.273684 
L 176.945787 263.273684 
L 177.409756 262.326316 
L 177.873725 262.010526 
L 178.801663 262.010526 
L 179.265632 261.378947 
L 179.729601 261.378947 
L 180.657539 260.115789 
L 181.585477 259.484211 
L 182.513415 259.484211 
L 182.977384 258.852632 
L 183.905322 256.957895 
L 184.36929 256.957895 
L 184.833259 256.010526 
L 185.761197 255.378947 
L 186.225166 255.378947 
L 186.689135 255.063158 
L 187.153104 254.115789 
L 187.617073 253.8 
L 188.545011 251.905263 
L 189.00898 251.273684 
L 189.472949 251.273684 
L 189.936918 250.010526 
L 190.400887 249.378947 
L 190.864856 249.378947 
L 191.328825 249.063158 
L 191.792794 248.431579 
L 192.720732 247.8 
L 193.184701 247.8 
L 193.64867 247.168421 
L 194.112639 246.852632 
L 195.040576 246.852632 
L 195.504545 246.536842 
L 195.968514 245.273684 
L 197.360421 244.326316 
L 198.288359 243.063158 
L 198.752328 242.115789 
L 199.216297 241.8 
L 199.680266 241.8 
L 200.144235 241.168421 
L 200.608204 241.168421 
L 201.536142 239.905263 
L 202.000111 239.905263 
L 202.46408 239.273684 
L 202.928049 239.273684 
L 203.392018 238.957895 
L 203.855987 238.957895 
L 204.319956 237.378947 
L 204.783925 236.431579 
L 205.247894 236.115789 
L 205.711863 236.115789 
L 206.175831 235.484211 
L 206.6398 235.168421 
L 207.103769 234.536842 
L 207.567738 234.221053 
L 208.495676 232.957895 
L 208.959645 232.642105 
L 209.887583 232.642105 
L 210.351552 232.010526 
L 211.743459 232.010526 
L 212.207428 231.378947 
L 212.671397 231.378947 
L 214.063304 229.484211 
L 214.527273 228.221053 
L 214.991242 227.905263 
L 215.455211 227.273684 
L 215.91918 227.273684 
L 217.311086 226.326316 
L 218.239024 226.326316 
L 219.166962 225.694737 
L 221.022838 225.694737 
L 221.486807 225.063158 
L 221.950776 225.063158 
L 222.414745 224.115789 
L 222.878714 223.8 
L 223.806652 223.8 
L 224.270621 222.852632 
L 224.73459 222.221053 
L 225.198559 221.905263 
L 225.662528 221.273684 
L 226.126497 220.326316 
L 226.590466 219.694737 
L 227.054435 219.378947 
L 227.518404 218.431579 
L 227.982373 218.115789 
L 228.446341 218.115789 
L 228.91031 217.168421 
L 229.374279 216.536842 
L 229.838248 215.589474 
L 230.302217 215.589474 
L 230.766186 214.642105 
L 231.230155 213.378947 
L 231.694124 213.378947 
L 232.622062 210.852632 
L 233.55 210.221053 
L 234.013969 209.589474 
L 234.477938 208.326316 
L 234.941907 207.694737 
L 235.405876 206.431579 
L 235.869845 206.431579 
L 236.333814 205.8 
L 236.797783 205.484211 
L 237.261752 204.536842 
L 237.725721 203.905263 
L 238.653659 203.273684 
L 239.581596 203.273684 
L 240.973503 202.326316 
L 241.901441 200.431579 
L 243.293348 198.536842 
L 243.757317 197.589474 
L 244.221286 197.589474 
L 245.149224 196.957895 
L 245.613193 196.957895 
L 246.077162 196.326316 
L 247.0051 196.326316 
L 247.469069 194.747368 
L 247.933038 194.115789 
L 248.397007 194.115789 
L 248.860976 193.484211 
L 249.324945 192.536842 
L 249.788914 192.536842 
L 250.252882 192.221053 
L 250.716851 191.589474 
L 251.644789 191.589474 
L 252.108758 191.273684 
L 252.572727 191.273684 
L 253.036696 190.326316 
L 253.964634 189.694737 
L 254.428603 189.063158 
L 254.892572 188.115789 
L 255.82051 187.484211 
L 256.284479 187.484211 
L 256.748448 185.905263 
L 259.532262 185.905263 
L 259.996231 185.273684 
L 260.4602 185.273684 
L 260.924169 184.642105 
L 261.852106 184.010526 
L 262.316075 183.063158 
L 262.780044 183.063158 
L 263.707982 181.8 
L 264.171951 181.484211 
L 264.63592 181.484211 
L 265.099889 180.536842 
L 266.491796 179.589474 
L 266.955765 178.957895 
L 267.883703 178.957895 
L 269.27561 178.010526 
L 270.203548 178.010526 
L 271.131486 177.378947 
L 271.595455 177.378947 
L 272.059424 177.063158 
L 272.523392 177.063158 
L 273.45133 176.431579 
L 274.843237 176.431579 
L 275.307206 176.115789 
L 275.771175 176.115789 
L 276.235144 175.8 
L 276.699113 175.8 
L 277.627051 175.168421 
L 278.554989 175.168421 
L 279.482927 174.536842 
L 282.73071 174.536842 
L 283.194678 174.221053 
L 285.978492 174.221053 
L 286.442461 173.905263 
L 287.834368 173.905263 
L 288.298337 173.589474 
L 289.226275 172.326316 
L 289.690244 172.010526 
L 292.010089 172.010526 
L 292.474058 171.378947 
L 293.401996 171.378947 
L 293.865965 171.063158 
L 294.329933 171.063158 
L 295.257871 170.431579 
L 297.113747 170.431579 
L 297.577716 170.115789 
L 298.041685 170.115789 
L 298.505654 169.8 
L 300.36153 169.8 
L 301.289468 169.168421 
L 301.753437 169.168421 
L 302.217406 168.536842 
L 302.681375 168.221053 
L 303.145344 167.589474 
L 305.00122 167.589474 
L 305.465188 167.273684 
L 306.393126 167.273684 
L 306.857095 166.957895 
L 311.032816 166.957895 
L 311.496785 166.326316 
L 311.960754 166.010526 
L 315.208537 166.010526 
L 316.136475 165.378947 
L 316.600443 165.378947 
L 317.064412 164.747368 
L 317.528381 164.747368 
L 317.99235 164.431579 
L 320.312195 164.431579 
L 320.776164 164.115789 
L 322.168071 164.115789 
L 323.559978 163.168421 
L 324.023947 163.168421 
L 324.487916 162.536842 
L 324.951885 162.221053 
L 325.415854 162.221053 
L 325.879823 161.905263 
L 326.807761 161.905263 
L 327.271729 161.589474 
L 328.199667 161.589474 
L 330.055543 160.326316 
L 330.519512 160.326316 
L 330.983481 159.694737 
L 331.911419 159.063158 
L 332.839357 159.063158 
L 333.303326 158.747368 
L 333.767295 158.747368 
L 334.231264 158.115789 
L 336.08714 158.115789 
L 336.551109 157.484211 
L 337.015078 157.168421 
L 339.334922 157.168421 
L 339.798891 156.852632 
L 343.510643 156.852632 
L 344.438581 155.589474 
L 344.90255 155.589474 
L 345.366519 155.273684 
L 347.222395 155.273684 
L 348.150333 154.642105 
L 349.078271 154.642105 
L 349.542239 154.326316 
L 350.470177 154.326316 
L 350.934146 154.010526 
L 352.790022 154.010526 
L 353.253991 153.694737 
L 353.71796 153.694737 
L 354.181929 153.378947 
L 354.645898 153.378947 
L 355.109867 153.063158 
L 355.573836 153.063158 
L 357.429712 151.8 
L 358.821619 151.8 
L 359.285588 151.484211 
L 359.749557 150.852632 
L 362.53337 150.852632 
L 363.461308 150.221053 
L 365.317184 150.221053 
L 365.781153 149.905263 
L 366.709091 149.905263 
L 367.17306 149.589474 
L 368.564967 149.589474 
L 369.028936 148.957895 
L 369.956874 148.957895 
L 370.420843 148.642105 
L 375.060532 148.642105 
L 375.524501 148.326316 
L 375.98847 147.694737 
L 376.452439 147.694737 
L 376.916408 147.378947 
L 378.308315 147.378947 
L 378.772284 147.063158 
L 381.556098 147.063158 
L 382.484035 146.431579 
L 384.339911 146.431579 
L 386.195787 145.168421 
L 388.051663 145.168421 
L 388.515632 144.852632 
L 388.979601 144.852632 
L 389.44357 144.536842 
L 391.763415 144.536842 
L 392.691353 143.273684 
L 393.61929 142.642105 
L 394.083259 142.642105 
L 394.547228 142.326316 
L 395.475166 142.326316 
L 395.939135 142.010526 
L 398.25898 142.010526 
L 398.722949 141.694737 
L 399.186918 141.063158 
L 399.650887 140.747368 
L 400.114856 140.747368 
L 400.578825 140.431579 
L 401.042794 139.8 
L 401.970732 139.168421 
L 412.178049 139.168421 
L 412.642018 138.852632 
L 414.033925 138.852632 
L 414.497894 138.536842 
L 416.817738 138.536842 
L 417.281707 137.905263 
L 417.745676 136.957895 
L 418.209645 136.957895 
L 420.065521 135.694737 
L 420.993459 135.694737 
L 421.457428 135.378947 
L 421.921397 135.378947 
L 422.385366 134.115789 
L 425.633149 134.115789 
L 426.097118 133.8 
L 427.952993 133.8 
L 428.416962 132.852632 
L 428.880931 132.536842 
L 429.3449 132.536842 
L 429.808869 132.221053 
L 430.736807 132.221053 
L 432.128714 131.273684 
L 432.592683 131.273684 
L 433.056652 130.957895 
L 433.520621 130.957895 
L 433.98459 130.642105 
L 434.912528 130.642105 
L 435.376497 130.326316 
L 436.304435 130.326316 
L 436.768404 130.010526 
L 437.232373 129.378947 
L 438.624279 128.431579 
L 439.088248 128.431579 
L 439.552217 128.115789 
L 440.016186 128.115789 
L 440.944124 127.484211 
L 446.047783 127.484211 
L 446.511752 127.168421 
L 453.471286 127.168421 
L 453.935255 126.852632 
L 457.647007 126.852632 
L 458.110976 126.536842 
L 460.43082 126.536842 
L 460.894789 126.221053 
L 461.358758 126.221053 
L 462.286696 125.589474 
L 464.606541 125.589474 
L 465.07051 125.273684 
L 467.390355 125.273684 
L 467.854324 124.642105 
L 470.638137 124.642105 
L 471.102106 124.326316 
L 472.030044 124.326316 
L 472.494013 124.010526 
L 473.421951 124.010526 
L 473.88592 123.694737 
L 474.349889 123.694737 
L 474.813858 123.378947 
L 476.205765 123.378947 
L 476.669734 122.747368 
L 477.133703 122.747368 
L 478.061641 122.115789 
L 479.917517 122.115789 
L 480.845455 121.484211 
L 483.629268 121.484211 
L 484.093237 121.168421 
L 484.557206 120.536842 
L 488.732927 120.536842 
L 489.196896 120.221053 
L 489.660865 120.221053 
L 490.124834 119.905263 
L 491.052772 118.642105 
L 491.516741 118.326316 
L 491.98071 117.694737 
L 494.300554 117.694737 
L 494.764523 117.378947 
L 498.476275 117.378947 
L 499.404213 116.747368 
L 500.79612 116.747368 
L 501.260089 116.431579 
L 501.724058 116.431579 
L 502.188027 116.115789 
L 504.043902 116.115789 
L 504.507871 115.8 
L 505.435809 115.8 
L 506.363747 115.168421 
L 507.291685 115.168421 
L 507.755654 114.852632 
L 509.147561 114.852632 
L 509.61153 114.536842 
L 511.931375 114.536842 
L 512.395344 114.221053 
L 513.323282 114.221053 
L 513.787251 113.905263 
L 514.25122 113.905263 
L 514.715188 113.589474 
L 516.107095 113.589474 
L 516.571064 113.273684 
L 518.42694 113.273684 
L 518.890909 112.326316 
L 519.818847 112.326316 
L 520.282816 112.010526 
L 529.098226 112.010526 
L 529.562195 111.694737 
L 538.841574 111.694737 
L 539.305543 111.063158 
L 542.553326 111.063158 
L 543.017295 110.747368 
L 544.409202 110.747368 
L 544.873171 110.431579 
L 549.976829 110.431579 
L 550.904767 109.8 
L 552.296674 109.8 
L 552.760643 109.484211 
L 554.616519 109.484211 
L 555.080488 109.168421 
L 556.008426 109.168421 
L 556.936364 108.536842 
L 558.328271 108.536842 
L 558.792239 108.221053 
L 562.96796 108.221053 
L 563.431929 107.905263 
L 563.895898 107.905263 
L 564.359867 106.957895 
L 565.287805 106.326316 
L 567.143681 106.326316 
L 567.60765 106.010526 
L 568.071619 105.063158 
L 568.535588 105.063158 
L 568.999557 104.747368 
L 569.927494 104.747368 
L 571.319401 103.8 
L 574.103215 103.8 
L 574.567184 103.484211 
L 575.031153 102.852632 
L 577.814967 102.852632 
L 578.278936 102.536842 
L 579.206874 102.536842 
L 579.670843 102.221053 
L 580.134812 102.221053 
L 580.59878 101.905263 
L 582.918625 101.905263 
L 583.382594 101.589474 
L 584.310532 101.589474 
L 584.774501 101.273684 
L 585.23847 101.273684 
L 585.702439 100.957895 
L 586.630377 100.957895 
L 587.558315 100.326316 
L 588.950222 100.326316 
L 589.414191 100.010526 
L 589.87816 100.010526 
L 591.270067 99.063158 
L 592.198004 99.063158 
L 592.661973 98.747368 
L 593.589911 98.747368 
L 594.05388 98.431579 
L 594.517849 98.431579 
L 594.981818 98.115789 
L 596.837694 98.115789 
L 597.301663 97.8 
L 598.229601 97.8 
L 598.69357 97.484211 
L 599.621508 97.484211 
L 600.085477 97.168421 
L 600.549446 96.536842 
L 601.477384 96.536842 
L 601.941353 96.221053 
L 602.405322 96.221053 
L 603.797228 95.273684 
L 604.261197 95.273684 
L 604.725166 94.957895 
L 609.364856 94.957895 
L 610.756763 94.010526 
L 611.220732 94.010526 
L 611.684701 93.694737 
L 612.14867 93.694737 
L 612.612639 93.378947 
L 613.076608 93.378947 
L 613.540576 93.063158 
L 614.932483 93.063158 
L 615.396452 92.431579 
L 619.572173 92.431579 
L 620.500111 91.8 
L 624.211863 91.8 
L 624.675831 91.484211 
L 625.1398 90.536842 
L 625.603769 90.221053 
L 626.995676 90.221053 
L 627.459645 89.905263 
L 629.77949 89.905263 
L 630.243459 89.589474 
L 632.563304 89.589474 
L 633.027273 89.273684 
L 635.811086 89.273684 
L 636.275055 88.642105 
L 636.739024 88.326316 
L 642.770621 88.326316 
L 643.23459 88.010526 
L 645.090466 88.010526 
L 646.018404 87.378947 
L 646.482373 87.378947 
L 646.946341 87.063158 
L 652.05 87.063158 
L 652.977938 86.431579 
L 654.833814 86.431579 
L 655.297783 86.115789 
L 655.761752 85.484211 
L 656.225721 85.484211 
L 656.68969 85.168421 
L 657.617627 85.168421 
L 658.081596 84.536842 
L 659.009534 84.536842 
L 659.473503 84.221053 
L 661.793348 84.221053 
L 662.257317 83.905263 
L 664.113193 83.905263 
L 665.5051 82.957895 
L 665.969069 82.010526 
L 666.897007 80.747368 
L 668.288914 80.747368 
L 668.752882 80.431579 
L 669.216851 79.484211 
L 669.68082 79.168421 
L 670.144789 79.168421 
L 670.608758 78.852632 
L 671.536696 78.852632 
L 672.000665 78.221053 
L 672.464634 77.905263 
L 677.104324 77.905263 
L 677.568293 77.589474 
L 678.496231 77.589474 
L 678.9602 77.273684 
L 682.207982 77.273684 
L 682.671951 76.957895 
L 684.063858 76.957895 
L 684.527827 76.642105 
L 685.919734 76.642105 
L 686.383703 76.010526 
L 686.847672 76.010526 
L 687.311641 75.694737 
L 687.77561 75.694737 
L 688.703548 75.063158 
L 692.415299 75.063158 
L 692.879268 74.747368 
L 693.807206 74.747368 
L 694.735144 74.115789 
L 695.663082 74.115789 
L 696.127051 73.8 
L 697.054989 73.8 
L 697.518958 73.484211 
L 697.982927 73.484211 
L 698.446896 72.852632 
L 698.910865 72.852632 
L 699.374834 72.221053 
L 702.158647 72.221053 
L 702.622616 71.905263 
L 703.550554 71.905263 
L 704.014523 71.589474 
L 706.334368 71.589474 
L 706.798337 71.273684 
L 707.262306 71.273684 
L 707.726275 70.957895 
L 708.654213 70.957895 
L 709.118182 70.642105 
L 710.974058 70.642105 
L 711.901996 70.010526 
L 717.005654 70.010526 
L 717.469623 69.063158 
L 718.397561 68.431579 
L 719.789468 68.431579 
L 720.253437 68.115789 
L 720.717406 67.484211 
L 722.109313 67.484211 
L 722.573282 67.168421 
L 723.037251 67.168421 
L 723.50122 66.852632 
L 724.429157 66.852632 
L 724.893126 66.536842 
L 725.357095 66.536842 
L 725.821064 66.221053 
L 727.212971 66.221053 
L 727.67694 65.905263 
L 729.996785 65.905263 
L 730.460754 65.589474 
L 731.388692 65.589474 
L 731.852661 65.273684 
L 733.708537 65.273684 
L 734.172506 64.957895 
L 736.028381 64.957895 
L 736.49235 64.326316 
L 736.956319 63.063158 
L 737.420288 62.747368 
L 738.348226 61.484211 
L 738.812195 61.484211 
L 739.276164 60.852632 
L 739.740133 60.852632 
L 740.204102 60.536842 
L 740.668071 59.589474 
L 741.596009 58.957895 
L 742.059978 58.010526 
L 742.523947 58.010526 
L 743.451885 57.378947 
L 743.915854 56.747368 
L 744.843792 56.115789 
L 745.771729 56.115789 
L 746.235698 55.8 
L 747.163636 55.8 
L 747.163636 55.8 
" clip-path="url(#p439e9a45d0)" style="fill: none; stroke: #1f77b4; stroke-width: 1.5; stroke-linecap: square"/>
   </g>
   <g id="line2d_36">
    <path d="M 138.436364 307.8 
L 146.323836 307.8 
L 146.787805 307.484211 
L 148.179712 307.484211 
L 148.643681 307.168421 
L 157.92306 307.168421 
L 158.387029 306.852632 
L 160.242905 306.852632 
L 160.706874 306.536842 
L 163.954656 306.536842 
L 164.418625 306.221053 
L 172.306098 306.221053 
L 172.770067 305.905263 
L 182.049446 305.905263 
L 182.513415 305.589474 
L 187.617073 305.589474 
L 188.081042 305.273684 
L 188.545011 305.273684 
L 189.472949 304.642105 
L 195.504545 304.642105 
L 195.968514 304.326316 
L 209.423614 304.326316 
L 209.887583 304.010526 
L 214.063304 304.010526 
L 214.527273 303.694737 
L 220.558869 303.694737 
L 221.022838 303.378947 
L 223.806652 303.378947 
L 224.270621 303.063158 
L 231.694124 303.063158 
L 232.158093 302.747368 
L 268.811641 302.747368 
L 269.27561 302.431579 
L 328.199667 302.431579 
L 328.663636 302.115789 
L 388.051663 302.115789 
L 388.515632 301.8 
L 392.691353 301.8 
L 393.155322 301.484211 
L 414.033925 301.484211 
L 414.497894 301.168421 
L 418.209645 301.168421 
L 418.673614 300.852632 
L 435.376497 300.852632 
L 435.840466 300.536842 
L 448.831596 300.536842 
L 449.295565 300.221053 
L 507.291685 300.221053 
L 507.755654 299.905263 
L 518.890909 299.905263 
L 519.354878 299.589474 
L 529.562195 299.589474 
L 530.026164 299.273684 
L 596.837694 299.273684 
L 597.301663 298.957895 
L 612.612639 298.957895 
L 613.076608 298.642105 
L 747.163636 298.642105 
L 747.163636 298.642105 
" clip-path="url(#p439e9a45d0)" style="fill: none; stroke: #ff7f0e; stroke-width: 1.5; stroke-linecap: square"/>
   </g>
   <g id="patch_3">
    <path d="M 108 320.4 
L 108 43.2 
" style="fill: none; stroke: #a9a9a9; stroke-width: 0.8; stroke-linejoin: miter; stroke-linecap: square"/>
   </g>
   <g id="patch_4">
    <path d="M 777.6 320.4 
L 777.6 43.2 
" style="fill: none"/>
   </g>
   <g id="patch_5">
    <path d="M 108 320.4 
L 777.6 320.4 
" style="fill: none; stroke: #a9a9a9; stroke-width: 0.8; stroke-linejoin: miter; stroke-linecap: square"/>
   </g>
   <g id="patch_6">
    <path d="M 108 43.2 
L 777.6 43.2 
" style="fill: none"/>
   </g>
   <g id="text_18">
    <!-- free_clash_vpn history -->
    <g style="fill: #a9a9a9" transform="translate(375.695625 37.2) scale(0.12 -0.12)">
     <defs>
      <path id="DejaVuSans-66" d="M 2375 4863 
L 2375 4384 
L 1825 4384 
Q 1516 4384 1395 4259 
Q 1275 4134 1275 3809 
L 1275 3500 
L 2222 3500 
L 2222 3053 
L 1275 3053 
L 1275 0 
L 697 0 
L 697 3053 
L 147 3053 
L 147 3500 
L 697 3500 
L 697 3744 
Q 697 4328 969 4595 
Q 1241 4863 1831 4863 
L 2375 4863 
z
" transform="scale(0.015625)"/>
      <path id="DejaVuSans-72" d="M 2631 2963 
Q 2534 3019 2420 3045 
Q 2306 3072 2169 3072 
Q 1681 3072 1420 2755 
Q 1159 2438 1159 1844 
L 1159 0 
L 581 0 
L 581 3500 
L 1159 3500 
L 1159 2956 
Q 1341 3275 1631 3429 
Q 1922 3584 2338 3584 
Q 2397 3584 2469 3576 
Q 2541 3569 2628 3553 
L 2631 2963 
z
" transform="scale(0.015625)"/>
      <path id="DejaVuSans-65" d="M 3597 1894 
L 3597 1613 
L 953 1613 
Q 991 1019 1311 708 
Q 1631 397 2203 397 
Q 2534 397 2845 478 
Q 3156 559 3463 722 
L 3463 178 
Q 3153 47 2828 -22 
Q 2503 -91 2169 -91 
Q 1331 -91 842 396 
Q 353 884 353 1716 
Q 353 2575 817 3079 
Q 1281 3584 2069 3584 
Q 2775 3584 3186 3129 
Q 3597 2675 3597 1894 
z
M 3022 2063 
Q 3016 2534 2758 2815 
Q 2500 3097 2075 3097 
Q 1594 3097 1305 2825 
Q 1016 2553 972 2059 
L 3022 2063 
z
" transform="scale(0.015625)"/>
      <path id="DejaVuSans-5f" d="M 3263 -1063 
L 3263 -1509 
L -63 -1509 
L -63 -1063 
L 3263 -1063 
z
" transform="scale(0.015625)"/>
      <path id="DejaVuSans-63" d="M 3122 3366 
L 3122 2828 
Q 2878 2963 2633 3030 
Q 2388 3097 2138 3097 
Q 1578 3097 1268 2742 
Q 959 2388 959 1747 
Q 959 1106 1268 751 
Q 1578 397 2138 397 
Q 2388 397 2633 464 
Q 2878 531 3122 666 
L 3122 134 
Q 2881 22 2623 -34 
Q 2366 -91 2075 -91 
Q 1284 -91 818 406 
Q 353 903 353 1747 
Q 353 2603 823 3093 
Q 1294 3584 2113 3584 
Q 2378 3584 2631 3529 
Q 2884 3475 3122 3366 
z
" transform="scale(0.015625)"/>
      <path id="DejaVuSans-6c" d="M 603 4863 
L 1178 4863 
L 1178 0 
L 603 0 
L 603 4863 
z
" transform="scale(0.015625)"/>
      <path id="DejaVuSans-61" d="M 2194 1759 
Q 1497 1759 1228 1600 
Q 959 1441 959 1056 
Q 959 750 1161 570 
Q 1363 391 1709 391 
Q 2188 391 2477 730 
Q 2766 1069 2766 1631 
L 2766 1759 
L 2194 1759 
z
M 3341 1997 
L 3341 0 
L 2766 0 
L 2766 531 
Q 2569 213 2275 61 
Q 1981 -91 1556 -91 
Q 1019 -91 701 211 
Q 384 513 384 1019 
Q 384 1609 779 1909 
Q 1175 2209 1959 2209 
L 2766 2209 
L 2766 2266 
Q 2766 2663 2505 2880 
Q 2244 3097 1772 3097 
Q 1472 3097 1187 3025 
Q 903 2953 641 2809 
L 641 3341 
Q 956 3463 1253 3523 
Q 1550 3584 1831 3584 
Q 2591 3584 2966 3190 
Q 3341 2797 3341 1997 
z
" transform="scale(0.015625)"/>
      <path id="DejaVuSans-73" d="M 2834 3397 
L 2834 2853 
Q 2591 2978 2328 3040 
Q 2066 3103 1784 3103 
Q 1356 3103 1142 2972 
Q 928 2841 928 2578 
Q 928 2378 1081 2264 
Q 1234 2150 1697 2047 
L 1894 2003 
Q 2506 1872 2764 1633 
Q 3022 1394 3022 966 
Q 3022 478 2636 193 
Q 2250 -91 1575 -91 
Q 1294 -91 989 -36 
Q 684 19 347 128 
L 347 722 
Q 666 556 975 473 
Q 1284 391 1588 391 
Q 1994 391 2212 530 
Q 2431 669 2431 922 
Q 2431 1156 2273 1281 
Q 2116 1406 1581 1522 
L 1381 1569 
Q 847 1681 609 1914 
Q 372 2147 372 2553 
Q 372 3047 722 3315 
Q 1072 3584 1716 3584 
Q 2034 3584 2315 3537 
Q 2597 3491 2834 3397 
z
" transform="scale(0.015625)"/>
      <path id="DejaVuSans-68" d="M 3513 2113 
L 3513 0 
L 2938 0 
L 2938 2094 
Q 2938 2591 2744 2837 
Q 2550 3084 2163 3084 
Q 1697 3084 1428 2787 
Q 1159 2491 1159 1978 
L 1159 0 
L 581 0 
L 581 4863 
L 1159 4863 
L 1159 2956 
Q 1366 3272 1645 3428 
Q 1925 3584 2291 3584 
Q 2894 3584 3203 3211 
Q 3513 2838 3513 2113 
z
" transform="scale(0.015625)"/>
      <path id="DejaVuSans-76" d="M 191 3500 
L 800 3500 
L 1894 563 
L 2988 3500 
L 3597 3500 
L 2284 0 
L 1503 0 
L 191 3500 
z
" transform="scale(0.015625)"/>
      <path id="DejaVuSans-70" d="M 1159 525 
L 1159 -1331 
L 581 -1331 
L 581 3500 
L 1159 3500 
L 1159 2969 
Q 1341 3281 1617 3432 
Q 1894 3584 2278 3584 
Q 2916 3584 3314 3078 
Q 3713 2572 3713 1747 
Q 3713 922 3314 415 
Q 2916 -91 2278 -91 
Q 1894 -91 1617 61 
Q 1341 213 1159 525 
z
M 3116 1747 
Q 3116 2381 2855 2742 
Q 2594 3103 2138 3103 
Q 1681 3103 1420 2742 
Q 1159 2381 1159 1747 
Q 1159 1113 1420 752 
Q 1681 391 2138 391 
Q 2594 391 2855 752 
Q 3116 1113 3116 1747 
z
" transform="scale(0.015625)"/>
      <path id="DejaVuSans-6e" d="M 3513 2113 
L 3513 0 
L 2938 0 
L 2938 2094 
Q 2938 2591 2744 2837 
Q 2550 3084 2163 3084 
Q 1697 3084 1428 2787 
Q 1159 2491 1159 1978 
L 1159 0 
L 581 0 
L 581 3500 
L 1159 3500 
L 1159 2956 
Q 1366 3272 1645 3428 
Q 1925 3584 2291 3584 
Q 2894 3584 3203 3211 
Q 3513 2838 3513 2113 
z
" transform="scale(0.015625)"/>
      <path id="DejaVuSans-20" transform="scale(0.015625)"/>
      <path id="DejaVuSans-69" d="M 603 3500 
L 1178 3500 
L 1178 0 
L 603 0 
L 603 3500 
z
M 603 4863 
L 1178 4863 
L 1178 4134 
L 603 4134 
L 603 4863 
z
" transform="scale(0.015625)"/>
      <path id="DejaVuSans-74" d="M 1172 4494 
L 1172 3500 
L 2356 3500 
L 2356 3053 
L 1172 3053 
L 1172 1153 
Q 1172 725 1289 603 
Q 1406 481 1766 481 
L 2356 481 
L 2356 0 
L 1766 0 
Q 1100 0 847 248 
Q 594 497 594 1153 
L 594 3053 
L 172 3053 
L 172 3500 
L 594 3500 
L 594 4494 
L 1172 4494 
z
" transform="scale(0.015625)"/>
      <path id="DejaVuSans-6f" d="M 1959 3097 
Q 1497 3097 1228 2736 
Q 959 2375 959 1747 
Q 959 1119 1226 758 
Q 1494 397 1959 397 
Q 2419 397 2687 759 
Q 2956 1122 2956 1747 
Q 2956 2369 2687 2733 
Q 2419 3097 1959 3097 
z
M 1959 3584 
Q 2709 3584 3137 3096 
Q 3566 2609 3566 1747 
Q 3566 888 3137 398 
Q 2709 -91 1959 -91 
Q 1206 -91 779 398 
Q 353 888 353 1747 
Q 353 2609 779 3096 
Q 1206 3584 1959 3584 
z
" transform="scale(0.015625)"/>
      <path id="DejaVuSans-79" d="M 2059 -325 
Q 1816 -950 1584 -1140 
Q 1353 -1331 966 -1331 
L 506 -1331 
L 506 -850 
L 844 -850 
Q 1081 -850 1212 -737 
Q 1344 -625 1503 -206 
L 1606 56 
L 191 3500 
L 800 3500 
L 1894 763 
L 2988 3500 
L 3597 3500 
L 2059 -325 
z
" transform="scale(0.015625)"/>
     </defs>
     <use xlink:href="#DejaVuSans-66"/>
     <use xlink:href="#DejaVuSans-72" transform="translate(35.205078 0)"/>
     <use xlink:href="#DejaVuSans-65" transform="translate(74.068359 0)"/>
     <use xlink:href="#DejaVuSans-65" transform="translate(135.591797 0)"/>
     <use xlink:href="#DejaVuSans-5f" transform="translate(197.115234 0)"/>
     <use xlink:href="#DejaVuSans-63" transform="translate(247.115234 0)"/>
     <use xlink:href="#DejaVuSans-6c" transform="translate(302.095703 0)"/>
     <use xlink:href="#DejaVuSans-61" transform="translate(329.878906 0)"/>
     <use xlink:href="#DejaVuSans-73" transform="translate(391.158203 0)"/>
     <use xlink:href="#DejaVuSans-68" transform="translate(443.257812 0)"/>
     <use xlink:href="#DejaVuSans-5f" transform="translate(506.636719 0)"/>
     <use xlink:href="#DejaVuSans-76" transform="translate(556.636719 0)"/>
     <use xlink:href="#DejaVuSans-70" transform="translate(615.816406 0)"/>
     <use xlink:href="#DejaVuSans-6e" transform="translate(679.292969 0)"/>
     <use xlink:href="#DejaVuSans-20" transform="translate(742.671875 0)"/>
     <use xlink:href="#DejaVuSans-68" transform="translate(774.458984 0)"/>
     <use xlink:href="#DejaVuSans-69" transform="translate(837.837891 0)"/>
     <use xlink:href="#DejaVuSans-73" transform="translate(865.621094 0)"/>
     <use xlink:href="#DejaVuSans-74" transform="translate(917.720703 0)"/>
     <use xlink:href="#DejaVuSans-6f" transform="translate(956.929688 0)"/>
     <use xlink:href="#DejaVuSans-72" transform="translate(1018.111328 0)"/>
     <use xlink:href="#DejaVuSans-79" transform="translate(1059.224609 0)"/>
    </g>
   </g>
   <g id="legend_1">
    <g id="line2d_37">
     <path d="M 815.08 328.498438 
L 825.08 328.498438 
L 835.08 328.498438 
" style="fill: none; stroke: #1f77b4; stroke-width: 1.5; stroke-linecap: square"/>
    </g>
    <g id="text_19">
     <!-- star -->
     <g style="fill: #a9a9a9" transform="translate(843.08 331.998438) scale(0.1 -0.1)">
      <use xlink:href="#DejaVuSans-73"/>
      <use xlink:href="#DejaVuSans-74" transform="translate(52.099609 0)"/>
      <use xlink:href="#DejaVuSans-61" transform="translate(91.308594 0)"/>
      <use xlink:href="#DejaVuSans-72" transform="translate(152.587891 0)"/>
     </g>
    </g>
    <g id="line2d_38">
     <path d="M 815.08 343.176562 
L 825.08 343.176562 
L 835.08 343.176562 
" style="fill: none; stroke: #ff7f0e; stroke-width: 1.5; stroke-linecap: square"/>
    </g>
    <g id="text_20">
     <!-- fork -->
     <g style="fill: #a9a9a9" transform="translate(843.08 346.676562) scale(0.1 -0.1)">
      <defs>
       <path id="DejaVuSans-6b" d="M 581 4863 
L 1159 4863 
L 1159 1991 
L 2875 3500 
L 3609 3500 
L 1753 1863 
L 3688 0 
L 2938 0 
L 1159 1709 
L 1159 0 
L 581 0 
L 581 4863 
z
" transform="scale(0.015625)"/>
      </defs>
      <use xlink:href="#DejaVuSans-66"/>
      <use xlink:href="#DejaVuSans-6f" transform="translate(35.205078 0)"/>
      <use xlink:href="#DejaVuSans-72" transform="translate(96.386719 0)"/>
      <use xlink:href="#DejaVuSans-6b" transform="translate(137.5 0)"/>
     </g>
    </g>
   </g>
  </g>
 </g>
 <defs>
  <clipPath id="p439e9a45d0">
   <rect x="108" y="43.2" width="669.6" height="277.2"/>
  </clipPath>
 </defs>
</svg>
